<svg id="Ebene_1" data-name="Ebene 1" xmlns="http://www.w3.org/2000/svg" viewBox="0 0 1080 1080"><path d="M987.19,337.5a25.39,25.39,0,0,0,25.31-25.31V227.81a25.39,25.39,0,0,0-25.31-25.31H945V101.25A101.27,101.27,0,0,0,843.75,0h-675A101.27,101.27,0,0,0,67.5,101.25v877.5A101.27,101.27,0,0,0,168.75,1080h675A101.27,101.27,0,0,0,945,978.75V877.5h42.19a25.39,25.39,0,0,0,25.31-25.31V767.81a25.39,25.39,0,0,0-25.31-25.31H945v-135h42.19a25.39,25.39,0,0,0,25.31-25.31V497.81a25.39,25.39,0,0,0-25.31-25.31H945v-135ZM506.25,270a135,135,0,1,1-135,135A135.13,135.13,0,0,1,506.25,270ZM742.5,769.5c0,22.36-21.09,40.5-47.25,40.5h-378C291.09,810,270,791.86,270,769.5V729c0-67.08,63.49-121.5,141.75-121.5H422.3a217.31,217.31,0,0,0,167.9,0h10.55C679,607.5,742.5,661.92,742.5,729Z"/></svg>