<svg id="Ebene_1" data-name="Ebene 1" xmlns="http://www.w3.org/2000/svg" viewBox="0 0 1080 1080"><path d="M990,120H90A90,90,0,0,0,0,210V870a90,90,0,0,0,90,90H990a90,90,0,0,0,90-90V210A90,90,0,0,0,990,120ZM330,300A120,120,0,1,1,210,420,120.11,120.11,0,0,1,330,300ZM540,744c0,19.87-18.75,36-42,36H162c-23.25,0-42-16.13-42-36V708c0-59.63,56.44-108,126-108h9.37a193.15,193.15,0,0,0,149.26,0H414c69.56,0,126,48.37,126,108Zm420-99a15,15,0,0,1-15,15H675a15,15,0,0,1-15-15V615a15,15,0,0,1,15-15H945a15,15,0,0,1,15,15Zm0-120a15,15,0,0,1-15,15H675a15,15,0,0,1-15-15V495a15,15,0,0,1,15-15H945a15,15,0,0,1,15,15Zm0-120a15,15,0,0,1-15,15H675a15,15,0,0,1-15-15V375a15,15,0,0,1,15-15H945a15,15,0,0,1,15,15Z"/></svg>