<?xml version="1.0" encoding="UTF-8"?>
<svg id="Ebene_1" data-name="Ebene 1" xmlns="http://www.w3.org/2000/svg" viewBox="0 0 1080 1080">
  <defs>
    <style>
      .cls-1 {
        fill: #010101;
      }
    </style>
  </defs>
  <path class="cls-1" d="M24.34,481.33c-32.45,32.45-32.45,85.14,0,117.59l415.33,415.33c32.45,32.45,85.14,32.45,117.59,0,32.45-32.45,32.45-85.14,0-117.59L200.59,540,557,183.33c32.45-32.45,32.45-85.14,0-117.59-32.45-32.45-85.14-32.45-117.59,0L24.08,481.07l.26,.26ZM938.07,66l-415.33,415.33c-32.45,32.45-32.45,85.14,0,117.59l415.33,415.33c32.45,32.45,85.14,32.45,117.59,0,32.45-32.45,32.45-85.14,0-117.59l-356.67-356.67,356.41-356.67c32.45-32.45,32.45-85.14,0-117.59-32.45-32.45-85.14-32.45-117.59,0l.26,.26Z"/>
</svg>