<?xml version="1.0" encoding="UTF-8"?>
<svg id="Ebene_1" data-name="Ebene 1" xmlns="http://www.w3.org/2000/svg" viewBox="0 0 1080 1080">
  <defs>
    <style>
      .cls-1 {
        fill: #010101;
      }
    </style>
  </defs>
  <path class="cls-1" d="M1055.66,598.67c32.45-32.45,32.45-85.14,0-117.59L640.33,65.74c-32.45-32.45-85.14-32.45-117.59,0-32.45,32.45-32.45,85.14,0,117.59l356.67,356.67-356.41,356.67c-32.45,32.45-32.45,85.14,0,117.59,32.45,32.45,85.14,32.45,117.59,0l415.33-415.33-.26-.26ZM141.93,1014l415.33-415.33c32.45-32.45,32.45-85.14,0-117.59L141.93,65.74c-32.45-32.45-85.14-32.45-117.59,0-32.45,32.45-32.45,85.14,0,117.59l356.67,356.67L24.6,896.67c-32.45,32.45-32.45,85.14,0,117.59,32.45,32.45,85.14,32.45,117.59,0l-.26-.26Z"/>
</svg>