<?xml version="1.0" encoding="UTF-8"?>
<svg id="Ebene_1" data-name="Ebene 1" xmlns="http://www.w3.org/2000/svg" viewBox="0 0 1080 1080">
  <defs>
    <style>
      .cls-1 {
        fill: #010101;
      }
    </style>
  </defs>
  <path class="cls-1" d="M50.62,67.5C22.57,67.5,0,90.07,0,118.12V961.88c0,28.05,22.57,50.62,50.62,50.62h33.75c28.05,0,50.62-22.57,50.62-50.62V118.12c0-28.05-22.57-50.62-50.62-50.62H50.62Zm185.62,0c-18.56,0-33.75,15.19-33.75,33.75V978.75c0,18.56,15.19,33.75,33.75,33.75s33.75-15.19,33.75-33.75V101.25c0-18.56-15.19-33.75-33.75-33.75Zm151.88,0c-28.05,0-50.62,22.57-50.62,50.62V961.88c0,28.05,22.57,50.62,50.62,50.62h33.75c28.05,0,50.62-22.57,50.62-50.62V118.12c0-28.05-22.57-50.62-50.62-50.62h-33.75Zm202.5,0c-28.05,0-50.62,22.57-50.62,50.62V961.88c0,28.05,22.57,50.62,50.62,50.62h33.75c28.05,0,50.62-22.57,50.62-50.62V118.12c0-28.05-22.57-50.62-50.62-50.62h-33.75Zm354.38,50.62V961.88c0,28.05,22.57,50.62,50.62,50.62h33.75c28.05,0,50.62-22.57,50.62-50.62V118.12c0-28.05-22.57-50.62-50.62-50.62h-33.75c-28.05,0-50.62,22.57-50.62,50.62Zm-135-16.88V978.75c0,18.56,15.19,33.75,33.75,33.75s33.75-15.19,33.75-33.75V101.25c0-18.56-15.19-33.75-33.75-33.75s-33.75,15.19-33.75,33.75Z"/>
</svg>