<svg id="Ebene_1" data-name="Ebene 1" xmlns="http://www.w3.org/2000/svg" viewBox="0 0 1080 1080"><path d="M38.57,241.07H1041.43A38.57,38.57,0,0,0,1080,202.5V106.07a38.57,38.57,0,0,0-38.57-38.57H38.57A38.57,38.57,0,0,0,0,106.07V202.5A38.57,38.57,0,0,0,38.57,241.07Zm0,385.72H1041.43A38.57,38.57,0,0,0,1080,588.21V491.79a38.57,38.57,0,0,0-38.57-38.58H38.57A38.57,38.57,0,0,0,0,491.79v96.42A38.57,38.57,0,0,0,38.57,626.79Zm0,385.71H1041.43A38.57,38.57,0,0,0,1080,973.93V877.5a38.57,38.57,0,0,0-38.57-38.57H38.57A38.57,38.57,0,0,0,0,877.5v96.43A38.57,38.57,0,0,0,38.57,1012.5Z"/></svg>