<?xml version="1.0" encoding="UTF-8"?>
<svg id="Ebene_1" data-name="Ebene 1" xmlns="http://www.w3.org/2000/svg" viewBox="0 0 1080 1080">
  <path d="M19.29,1012.5h501.43c10.65,0,19.29-17.27,19.29-38.57v-96.43c0-21.3-8.63-38.57-19.29-38.57H19.29c-10.65,0-19.29,17.27-19.29,38.57v96.43c0,21.3,8.63,38.57,19.29,38.57Z"/>
  <path d="M28.93,626.79H781.07c15.98,0,28.93-17.27,28.93-38.57v-96.43c0-21.3-12.95-38.57-28.93-38.57H28.93c-15.98,0-28.93,17.27-28.93,38.57v96.43c0,21.3,12.95,38.57,28.93,38.57Z"/>
  <rect y="67.5" width="1080" height="173.57" rx="38.57" ry="38.57"/>
</svg>