<svg id="Ebene_1" data-name="Ebene 1" xmlns="http://www.w3.org/2000/svg" viewBox="0 0 1080 1080"><defs><style>.cls-1{fill:#010101;}</style></defs><path class="cls-1" d="M457.41,1080a116,116,0,1,1,116-116A116.08,116.08,0,0,1,457.41,1080Zm0-174a58,58,0,1,0,58,58A58.08,58.08,0,0,0,457.41,906.05Z"/><path class="cls-1" d="M863.3,1080a116,116,0,1,1,116-116A116.08,116.08,0,0,1,863.3,1080Zm0-174a58,58,0,1,0,58,58A58.08,58.08,0,0,0,863.3,906.05Z"/><path class="cls-1" d="M1010.58,179.27l-.06.06C996,162.11,974,152.25,950.27,152.25H752.34L600.09,0l-.29.29,0,0-152,152H240.37l-5.74-34.56C227,72.06,184.82,36.28,138.49,36.28h-58a29,29,0,0,0,0,58h58c17.81,0,36,15.42,38.91,33l96.89,581.41c7.6,45.63,49.81,81.41,96.14,81.41H950.27a29,29,0,1,0,0-58H370.43c-17.8,0-36-15.42-38.91-33L317.2,613.28,895,563c44.93-3.88,86-41.8,93.41-86.34l38.91-233.5C1031.22,219.74,1025.13,196.43,1010.58,179.27ZM600,89.5l62.75,62.75H537.29ZM970.11,233.66,931.2,467.16c-3.08,18.33-22.67,36.48-41.23,38.1L307.63,555.88,250,210.18H950.22c6.78,0,12.46,2.32,16,6.55s4.93,10.2,3.83,16.87Z"/></svg>