<?xml version="1.0" encoding="UTF-8"?>
<svg id="Ebene_1" data-name="Ebene 1" xmlns="http://www.w3.org/2000/svg" viewBox="0 0 1080 1080">
  <defs>
    <style>
      .cls-1 {
        fill: #010101;
      }
    </style>
  </defs>
  <path class="cls-1" d="M607.52,67.5v37.72c152.93,24.28,270,156.77,270,316.66v70.45c0,95.77,32.7,188.79,92.39,263.67l31.43,39.23c12.23,15.19,14.55,36.07,6.12,53.58-8.44,17.51-26.16,28.69-45.56,28.69H118.15c-19.47,0-37.2-11.18-45.63-28.69-8.43-17.51-6.06-38.39,6.1-53.58l31.45-39.23c59.84-74.88,92.45-167.91,92.45-263.67v-70.45c0-159.89,117.07-292.38,270-316.66v-37.72c0-37.27,30.16-67.5,67.5-67.5s67.5,30.23,67.5,67.5h0Zm-84.38,135c-121.08,0-219.38,98.3-219.38,219.38v70.45c0,101.04-29.28,199.55-83.72,283.92H860.02c-54.42-84.38-83.74-182.88-83.74-283.92v-70.45c0-121.08-98.3-219.38-219.38-219.38h-33.75Zm151.88,742.5c0,33.96-14.13,70.24-39.45,95.55-25.31,25.31-61.59,39.45-95.55,39.45-35.86,0-70.24-14.13-95.55-39.45-25.31-25.31-39.45-61.59-39.45-95.55h270Z"/>
</svg>