<?xml version="1.0" encoding="UTF-8"?>
<svg id="Ebene_1" data-name="Ebene 1" xmlns="http://www.w3.org/2000/svg" viewBox="0 0 1080 1080">
  <defs>
    <style>
      .cls-1 {
        fill: #010101;
      }
    </style>
  </defs>
  <path class="cls-1" d="M539.95,0c-37.34,0-67.5,30.16-67.5,67.5v40.5c-153.98,31.22-270,167.48-270,330.75v39.66c0,99.14-36.49,194.91-102.3,269.16l-15.61,17.51c-17.72,19.83-21.94,48.3-11.18,72.56,10.76,24.26,35.02,39.87,61.59,39.87H944.95c26.58,0,50.62-15.61,61.59-39.87,10.97-24.26,6.54-52.73-11.18-72.56l-15.61-17.51c-65.81-74.25-102.3-169.8-102.3-269.16v-39.66c0-163.27-116.02-299.53-270-330.75v-40.5c0-37.34-30.16-67.5-67.5-67.5Zm95.55,1040.55c25.31-25.31,39.45-59.7,39.45-95.55H404.95c0,35.86,14.13,70.24,39.45,95.55,25.31,25.31,59.7,39.45,95.55,39.45s70.24-14.13,95.55-39.45Z"/>
</svg>