<svg id="Ebene_1" data-name="Ebene 1" xmlns="http://www.w3.org/2000/svg" viewBox="0 0 1080 1080"><path d="M379.69,607.5H295.31A25.39,25.39,0,0,1,270,582.19V497.81a25.39,25.39,0,0,1,25.31-25.31h84.38A25.39,25.39,0,0,1,405,497.81v84.38A25.39,25.39,0,0,1,379.69,607.5ZM607.5,582.19V497.81a25.39,25.39,0,0,0-25.31-25.31H497.81a25.39,25.39,0,0,0-25.31,25.31v84.38a25.39,25.39,0,0,0,25.31,25.31h84.38A25.39,25.39,0,0,0,607.5,582.19Zm202.5,0V497.81a25.39,25.39,0,0,0-25.31-25.31H700.31A25.39,25.39,0,0,0,675,497.81v84.38a25.39,25.39,0,0,0,25.31,25.31h84.38A25.39,25.39,0,0,0,810,582.19ZM607.5,784.69V700.31A25.39,25.39,0,0,0,582.19,675H497.81a25.39,25.39,0,0,0-25.31,25.31v84.38A25.39,25.39,0,0,0,497.81,810h84.38A25.39,25.39,0,0,0,607.5,784.69Zm-202.5,0V700.31A25.39,25.39,0,0,0,379.69,675H295.31A25.39,25.39,0,0,0,270,700.31v84.38A25.39,25.39,0,0,0,295.31,810h84.38A25.39,25.39,0,0,0,405,784.69Zm405,0V700.31A25.39,25.39,0,0,0,784.69,675H700.31A25.39,25.39,0,0,0,675,700.31v84.38A25.39,25.39,0,0,0,700.31,810h84.38A25.39,25.39,0,0,0,810,784.69Zm202.5-548.44v742.5A101.27,101.27,0,0,1,911.25,1080H168.75A101.27,101.27,0,0,1,67.5,978.75V236.25A101.27,101.27,0,0,1,168.75,135H270V25.31A25.39,25.39,0,0,1,295.31,0h84.38A25.39,25.39,0,0,1,405,25.31V135H675V25.31A25.39,25.39,0,0,1,700.31,0h84.38A25.39,25.39,0,0,1,810,25.31V135H911.25A101.27,101.27,0,0,1,1012.5,236.25ZM911.25,966.09V337.5H168.75V966.09a12.7,12.7,0,0,0,12.66,12.66H898.59A12.7,12.7,0,0,0,911.25,966.09Z"/></svg>