<svg id="Ebene_1" data-name="Ebene 1" xmlns="http://www.w3.org/2000/svg" viewBox="0 0 1080 1080"><path d="M1080,303.75v607.5A101.27,101.27,0,0,1,978.75,1012.5H101.25A101.27,101.27,0,0,1,0,911.25V303.75A101.27,101.27,0,0,1,101.25,202.5H286.88l25.94-69.4a101.12,101.12,0,0,1,94.71-65.6H672.26A101.12,101.12,0,0,1,767,133.1l26.15,69.4H978.75A101.27,101.27,0,0,1,1080,303.75ZM793.12,607.5c0-139.64-113.48-253.12-253.12-253.12S286.88,467.86,286.88,607.5,400.36,860.63,540,860.63,793.12,747.14,793.12,607.5Zm-67.5,0c0,102.3-83.32,185.63-185.62,185.63S354.38,709.8,354.38,607.5,437.7,421.88,540,421.88,725.62,505.2,725.62,607.5Z"/></svg>