<svg id="Ebene_1" data-name="Ebene 1" xmlns="http://www.w3.org/2000/svg" viewBox="0 0 1080 1080"><path d="M101.25,67.5A101.27,101.27,0,0,0,0,168.75v742.5A101.27,101.27,0,0,0,101.25,1012.5h877.5A101.27,101.27,0,0,0,1080,911.25V168.75A101.27,101.27,0,0,0,978.75,67.5Zm0,67.5H324.84a12.7,12.7,0,0,1,12.66,12.66v42.18a12.7,12.7,0,0,1-12.66,12.66H80.16A12.7,12.7,0,0,1,67.5,189.84V168.75A33.85,33.85,0,0,1,101.25,135ZM999.84,337.5H80.16A12.7,12.7,0,0,1,67.5,324.84V248.91a12.7,12.7,0,0,1,12.66-12.66H371.25L435,140.7A12.56,12.56,0,0,1,445.5,135H978.75a33.85,33.85,0,0,1,33.75,33.75V324.84A12.7,12.7,0,0,1,999.84,337.5ZM540,894.38c-139.64,0-253.12-113.49-253.12-253.13S400.36,388.12,540,388.12,793.12,501.61,793.12,641.25,679.64,894.38,540,894.38Zm0-438.76c-102.3,0-185.62,83.33-185.62,185.63S437.7,826.88,540,826.88s185.62-83.33,185.62-185.63S642.3,455.62,540,455.62ZM438.75,675A33.85,33.85,0,0,1,405,641.25a135.13,135.13,0,0,1,135-135,33.75,33.75,0,0,1,0,67.5,67.69,67.69,0,0,0-67.5,67.5A33.85,33.85,0,0,1,438.75,675Z"/></svg>