<?xml version="1.0" encoding="UTF-8"?>
<svg id="Ebene_1" data-name="Ebene 1" xmlns="http://www.w3.org/2000/svg" viewBox="0 0 1080 1080">
  <defs>
    <style>
      .cls-1 {
        fill: #010101;
      }
    </style>
  </defs>
  <path class="cls-1" d="M45.17,58.16C20.14,58.16,0,78.3,0,103.33s20.14,45.17,45.17,45.17h98.06l113.5,595.71c4.14,21.27,22.77,36.7,44.42,36.7H918.51c25.03,0,45.17-20.14,45.17-45.17s-20.14-45.17-45.17-45.17H338.61l-17.13-90.34H918.13c26.92,0,50.63-17.88,57.97-43.85l101.64-361.38c10.73-38.4-18.07-76.6-57.97-76.6H229.63l-4.52-23.53c-4.14-21.27-22.77-36.7-44.42-36.7H45.17ZM331.26,1021.84c49.88,0,90.34-40.47,90.34-90.34s-40.47-90.34-90.34-90.34-90.34,40.47-90.34,90.34,40.47,90.34,90.34,90.34Zm632.41-90.34c0-49.88-40.47-90.34-90.34-90.34s-90.34,40.47-90.34,90.34,40.47,90.34,90.34,90.34,90.34-40.47,90.34-90.34ZM474.31,359.31c0-20.7,16.94-37.64,37.64-37.64h82.82v-82.82c0-20.7,16.94-37.64,37.64-37.64s37.64,16.94,37.64,37.64v82.82h82.82c20.7,0,37.64,16.94,37.64,37.64s-16.94,37.64-37.64,37.64h-82.82v82.82c0,20.7-16.94,37.64-37.64,37.64s-37.64-16.94-37.64-37.64v-82.82h-82.82c-20.7,0-37.64-16.94-37.64-37.64Z"/>
</svg>