<svg id="Ebene_1" data-name="Ebene 1" xmlns="http://www.w3.org/2000/svg" viewBox="0 0 1080 1440"><defs><style>.cls-1{fill:#010101;}</style></defs><path class="cls-1" d="M448.7,1296.9a128.2,128.2,0,1,1,128.2-128.2A128.33,128.33,0,0,1,448.7,1296.9Zm0-192.3a64.1,64.1,0,1,0,64.1,64.1A64.2,64.2,0,0,0,448.7,1104.6Z"/><path class="cls-1" d="M897.39,1296.9a128.2,128.2,0,1,1,128.2-128.2A128.32,128.32,0,0,1,897.39,1296.9Zm0-192.3a64.1,64.1,0,1,0,64.1,64.1A64.2,64.2,0,0,0,897.39,1104.6Z"/><path class="cls-1" d="M1060.14,301.24c-16.09-19-40.38-29.94-66.6-29.94H208.77l-6.34-38.2c-8.4-50.45-55.06-90-106.28-90H32.05a32.05,32.05,0,0,0,0,64.1h64.1c19.68,0,39.81,17.05,43,36.48L246.27,886.4c8.4,50.45,55.06,90,106.28,90h641a32.05,32.05,0,0,0,0-64.1h-641c-19.68,0-39.81-17-43-36.47L293.7,781l638.76-55.58c49.67-4.29,95.06-46.21,103.26-95.44l43-258.13c4.3-25.9-2.43-51.66-18.52-70.64Zm-44.67,60.06-43,258.13c-3.4,20.25-25.07,40.32-45.58,42.11l-643.75,56L219.41,335.34H993.48c7.5,0,13.78,2.56,17.69,7.24s5.45,11.28,4.23,18.65Z"/></svg>