<svg id="Ebene_1" data-name="Ebene 1" xmlns="http://www.w3.org/2000/svg" viewBox="0 0 1080 1080"><defs><style>.cls-1{fill:#010101;}</style></defs><path class="cls-1" d="M454.54,1080a120,120,0,1,1,120-120A120.12,120.12,0,0,1,454.54,1080Zm0-180a60,60,0,1,0,60,60A60.1,60.1,0,0,0,454.54,900Z"/><path class="cls-1" d="M874.54,1080a120,120,0,1,1,120-120A120.12,120.12,0,0,1,874.54,1080Zm0-180a60,60,0,1,0,60,60A60.1,60.1,0,0,0,874.54,900Z"/><path class="cls-1" d="M1026.88,148c-15.06-17.82-37.8-28-62.34-28H230L224,84.24C216.16,37,172.48,0,124.54,0h-60a30,30,0,0,0,0,60h60C143,60,161.8,76,164.8,94.14L265.06,695.76C272.92,743,316.6,780,364.54,780h600a30,30,0,0,0,0-60h-600c-18.42,0-37.26-16-40.26-34.14l-14.82-88.8,597.9-52c46.5-4,89-43.26,96.66-89.34l40.26-241.62c4-24.24-2.28-48.36-17.34-66.12Zm-41.82,56.22L944.8,445.86c-3.18,19-23.46,37.74-42.66,39.42L299.56,537.66,239.92,179.94H964.48c7,0,12.9,2.4,16.56,6.78s5.1,10.56,4,17.46Z"/></svg>