<svg id="Ebene_1" data-name="Ebene 1" xmlns="http://www.w3.org/2000/svg" viewBox="0 0 1080 1080"><path d="M540,0C241.69,0,0,241.69,0,540s241.69,540,540,540,540-241.69,540-540S838.31,0,540,0Zm0,975.48C299.4,975.48,104.52,780.6,104.52,540S299.4,104.52,540,104.52,975.48,299.4,975.48,540,780.6,975.48,540,975.48ZM674.56,748.16,489.7,613.81A26.28,26.28,0,0,1,479,592.69V235.16A26.21,26.21,0,0,1,505.16,209h69.68A26.21,26.21,0,0,1,601,235.16V543.7L746.42,649.52a26.11,26.11,0,0,1,5.66,36.58l-40.93,56.4a26.32,26.32,0,0,1-36.59,5.66Z"/></svg>