<svg id="Ebene_1" data-name="Ebene 1" xmlns="http://www.w3.org/2000/svg" viewBox="0 0 1080 1080"><path d="M540,0C241.77,0,0,241.77,0,540s241.77,540,540,540,540-241.77,540-540S838.23,0,540,0Zm0,975.48c-240.67,0-435.48-194.77-435.48-435.48S299.29,104.52,540,104.52,975.48,299.29,975.48,540,780.71,975.48,540,975.48ZM773.75,755.43c-20.94,21.14-99.14,90.13-226.59,90.13-179.49,0-305.9-133.75-305.9-308.25,0-172.35,131.25-303.53,304.32-303.53,120.92,0,193.22,58,212.5,75.72a26.06,26.06,0,0,1,4.22,33.37l-39.53,61.21a26.12,26.12,0,0,1-38.1,6.36C666,395.69,615.39,361.37,550.3,361.37c-105.17,0-169.65,76.92-169.65,174.37C380.65,626.3,439.19,718,551.09,718c71.11,0,123.77-41.45,143.11-59.28a26.14,26.14,0,0,1,38.8,3.79l43.26,59.16a26,26,0,0,1-2.51,33.79Z"/></svg>