<svg id="Ebene_1" data-name="Ebene 1" xmlns="http://www.w3.org/2000/svg" viewBox="0 0 1080 1080"><path d="M540,0C241.77,0,0,241.77,0,540s241.77,540,540,540,540-241.77,540-540S838.23,0,540,0Zm255,755c-3.47,4.06-86.61,99.57-239.19,99.57-184.41,0-314.6-137.74-314.6-317,0-177,135-312.24,313-312.24,145.79,0,222,81.25,225.19,84.71A26.12,26.12,0,0,1,782.17,342l-48.73,75.46a26.14,26.14,0,0,1-39.7,5c-.51-.46-57.76-52-134.74-52-100.41,0-160.94,73.1-160.94,165.66,0,86.23,55.55,173.52,161.73,173.52,84.26,0,142.14-61.7,142.72-62.33a26.13,26.13,0,0,1,40.29,2.3l53.45,73.1a26.13,26.13,0,0,1-1.2,32.37Z"/></svg>