<?xml version="1.0" encoding="UTF-8"?>
<svg id="Ebene_1" data-name="Ebene 1" xmlns="http://www.w3.org/2000/svg" viewBox="0 0 1080 1080">
  <defs>
    <style>
      .cls-1 {
        fill: #010101;
      }
    </style>
  </defs>
  <path class="cls-1" d="M315,690c24.94,0,45,20.06,45,45s-20.06,45-45,45h-90c-24.94,0-45-20.06-45-45s20.06-45,45-45h90Zm360,0c24.94,0,45,20.06,45,45s-20.06,45-45,45h-210c-24.94,0-45-20.06-45-45s20.06-45,45-45h210ZM960,120c66.19,0,120,53.72,120,120V840c0,66.19-53.81,120-120,120H120c-66.28,0-120-53.81-120-120V240c0-66.28,53.72-120,120-120H960Zm0,90H120c-16.58,0-30,13.43-30,30v60H990v-60c0-16.57-13.5-30-30-30Zm30,270H90v360c0,16.5,13.42,30,30,30H960c16.5,0,30-13.5,30-30V480Z"/>
</svg>