<?xml version="1.0" encoding="UTF-8"?>
<svg id="Ebene_1" data-name="Ebene 1" xmlns="http://www.w3.org/2000/svg" viewBox="0 0 1080 1080">
  <defs>
    <style>
      .cls-1 {
        fill: #010101;
      }
    </style>
  </defs>
  <path class="cls-1" d="M120,120C53.81,120,0,173.81,0,240v60H1080v-60c0-66.19-53.81-120-120-120H120Zm960,360H0v360c0,66.19,53.81,120,120,120H960c66.19,0,120-53.81,120-120V480ZM210,720h120c16.5,0,30,13.5,30,30s-13.5,30-30,30h-120c-16.5,0-30-13.5-30-30s13.5-30,30-30Zm210,30c0-16.5,13.5-30,30-30h240c16.5,0,30,13.5,30,30s-13.5,30-30,30h-240c-16.5,0-30-13.5-30-30Z"/>
</svg>