<?xml version="1.0" encoding="UTF-8"?>
<svg id="Ebene_1" data-name="Ebene 1" xmlns="http://www.w3.org/2000/svg" viewBox="0 0 1080 1080">
  <defs>
    <style>
      .cls-1 {
        fill: #010101;
      }
    </style>
  </defs>
  <path class="cls-1" d="M280,540c0,77.25-62.67,140-140,140S0,617.25,0,540s62.67-140,140-140,140,62.75,140,140Zm400,0c0,77.25-62.75,140-140,140s-140-62.75-140-140,62.75-140,140-140,140,62.75,140,140Zm120,0c0-77.25,62.75-140,140-140s140,62.75,140,140-62.75,140-140,140-140-62.75-140-140Z"/>
</svg>