<svg id="Ebene_1" data-name="Ebene 1" xmlns="http://www.w3.org/2000/svg" viewBox="0 0 1080 1080"><defs><style>.cls-1{fill:#010101;}</style></defs><path id="envelope" class="cls-1" d="M945,135H135A135,135,0,0,0,0,270V810A135,135,0,0,0,135,945H945a135,135,0,0,0,135-135V270A135,135,0,0,0,945,135Zm33.75,67.5L540,540,101.25,202.5ZM67.5,810V270L371.25,506.25,70.71,829.51A66.55,66.55,0,0,1,67.5,810ZM120,875.71,424.57,551.17,540,638.38,650.46,550.6,960,875.68C955.16,876.79,124.84,876.79,120,875.71Zm889.32-46.17L708.75,506.25,1012.5,270V810A67.24,67.24,0,0,1,1009.3,829.54Z"/></svg>