<?xml version="1.0" encoding="UTF-8"?>
<svg id="Ebene_1" data-name="Ebene 1" xmlns="http://www.w3.org/2000/svg" viewBox="0 0 1080 1080">
  <defs>
    <style>
      .cls-1 {
        fill: #010101;
      }
    </style>
  </defs>
  <path class="cls-1" d="M364.62,69H203.38c-74.24,0-134.38,60.13-134.38,134.38v161.25c0,74.24,60.13,134.38,134.38,134.38h161.25c74.24,0,134.38-60.13,134.38-134.38V203.38c0-74.24-60.13-134.38-134.38-134.38Zm79.38,275c0,55.25-44.75,100-100,100h-120c-55.25,0-100-44.75-100-100v-120c0-55.25,44.75-100,100-100h120c55.25,0,100,44.75,100,100v120Z"/>
  <path class="cls-1" d="M364.62,581H203.38c-74.24,0-134.38,60.13-134.38,134.38v161.25c0,74.24,60.13,134.38,134.38,134.38h161.25c74.24,0,134.38-60.13,134.38-134.38v-161.25c0-74.24-60.13-134.38-134.38-134.38Zm79.38,275c0,55.25-44.75,100-100,100h-120c-55.25,0-100-44.75-100-100v-120c0-55.25,44.75-100,100-100h120c55.25,0,100,44.75,100,100v120Z"/>
  <path class="cls-1" d="M876.62,69h-161.25c-74.24,0-134.38,60.13-134.38,134.38v161.25c0,74.24,60.13,134.38,134.38,134.38h161.25c74.24,0,134.38-60.13,134.38-134.38V203.38c0-74.24-60.13-134.38-134.38-134.38Zm79.38,275c0,55.25-44.75,100-100,100h-120c-55.25,0-100-44.75-100-100v-120c0-55.25,44.75-100,100-100h120c55.25,0,100,44.75,100,100v120Z"/>
  <path class="cls-1" d="M876.62,581h-161.25c-74.24,0-134.38,60.13-134.38,134.38v161.25c0,74.24,60.13,134.38,134.38,134.38h161.25c74.24,0,134.38-60.13,134.38-134.38v-161.25c0-74.24-60.13-134.38-134.38-134.38Zm79.38,275c0,55.25-44.75,100-100,100h-120c-55.25,0-100-44.75-100-100v-120c0-55.25,44.75-100,100-100h120c55.25,0,100,44.75,100,100v120Z"/>
</svg>