<?xml version="1.0" encoding="UTF-8"?>
<svg id="Ebene_1" data-name="Ebene 1" xmlns="http://www.w3.org/2000/svg" viewBox="0 0 1080 1080">
  <defs>
    <style>
      .cls-1 {
        fill: #010101;
      }
    </style>
  </defs>
  <path class="cls-1" d="M365,68H203c-74.59,0-135,60.41-135,135v162c0,74.59,60.41,135,135,135h162c74.59,0,135-60.41,135-135V203c0-74.59-60.41-135-135-135Zm99,283.5c0,62.16-50.34,112.5-112.5,112.5H216.5c-62.16,0-112.5-50.34-112.5-112.5V216.5c0-62.16,50.34-112.5,112.5-112.5h135c62.16,0,112.5,50.34,112.5,112.5v135Z"/>
  <path class="cls-1" d="M365,580H203c-74.59,0-135,60.41-135,135v162c0,74.59,60.41,135,135,135h162c74.59,0,135-60.41,135-135v-162c0-74.59-60.41-135-135-135Zm99,283.5c0,62.16-50.34,112.5-112.5,112.5H216.5c-62.16,0-112.5-50.34-112.5-112.5v-135c0-62.16,50.34-112.5,112.5-112.5h135c62.16,0,112.5,50.34,112.5,112.5v135Z"/>
  <path class="cls-1" d="M877,68h-162c-74.59,0-135,60.41-135,135v162c0,74.59,60.41,135,135,135h162c74.59,0,135-60.41,135-135V203c0-74.59-60.41-135-135-135Zm99,283.5c0,62.16-50.34,112.5-112.5,112.5h-135c-62.16,0-112.5-50.34-112.5-112.5V216.5c0-62.16,50.34-112.5,112.5-112.5h135c62.16,0,112.5,50.34,112.5,112.5v135Z"/>
  <path class="cls-1" d="M877,580h-162c-74.59,0-135,60.41-135,135v162c0,74.59,60.41,135,135,135h162c74.59,0,135-60.41,135-135v-162c0-74.59-60.41-135-135-135Zm99,283.5c0,62.16-50.34,112.5-112.5,112.5h-135c-62.16,0-112.5-50.34-112.5-112.5v-135c0-62.16,50.34-112.5,112.5-112.5h135c62.16,0,112.5,50.34,112.5,112.5v135Z"/>
</svg>