<svg id="Ebene_1" data-name="Ebene 1" xmlns="http://www.w3.org/2000/svg" viewBox="0 0 1080 1080"><defs><style>.cls-1{fill:#1d1d1b;}</style></defs><path class="cls-1" d="M540,0C241.77,0,0,241.77,0,540s241.77,540,540,540,540-241.77,540-540S838.23,0,540,0Zm0,975c-240.24,0-435-194.76-435-435S299.76,105,540,105,975,299.76,975,540,780.24,975,540,975Z"/><polygon class="cls-1" points="744.95 259.51 680.05 194.62 399.95 474.72 399.95 474.72 335.05 539.62 399.95 604.51 680.05 884.62 744.95 819.72 464.84 539.62 744.95 259.51"/></svg>