<svg id="Ebene_1" data-name="Ebene 1" xmlns="http://www.w3.org/2000/svg" viewBox="0 0 1080 1080"><defs><style>.cls-1{fill:#1d1d1b;}</style></defs><path class="cls-1" d="M65,250.88a40.12,40.12,0,0,0-40,40v495A40.27,40.27,0,0,0,65,826l950,3a40,40,0,0,0,40-39.87V290.88a40.12,40.12,0,0,0-40-40Zm115,515c-22,0-26.62-12-10.27-26.76L510.27,432.64c16.35-14.72,43.11-14.72,59.46,0L910.27,739.12C926.62,753.84,922,765.88,900,765.88Zm-90-375c0-22,13.38-27.95,29.73-13.23L262.1,505.82c16.35,14.72,16.56,39,.48,54.05L119.25,693.6C103.16,708.6,90,702.88,90,680.88Zm900,290c0,22-13.16,27.72-29.25,12.72L817.42,559.87c-16.08-15-15.87-39.33.48-54.05L960.27,377.65c16.35-14.72,29.73-8.77,29.73,13.23Zm-90-375c22,0,25.84,11.11,8.53,24.69L736.86,471.2c-17.32,13.58-45.3,13.15-62.19-.94L570.72,383.55c-16.9-14.09-44.54-14.09-61.44,0L405.33,470.26c-16.89,14.09-44.87,14.51-62.17.92L171.09,331.06C154,317.21,158,305.88,180,305.88Z"/></svg>