<svg id="Ebene_1" data-name="Ebene 1" xmlns="http://www.w3.org/2000/svg" viewBox="0 0 1080 1080"><defs><style>.cls-1{fill:#010101;}.cls-2{fill:#1d1d1b;}</style></defs><path class="cls-1" d="M278.91,492.55A130.55,130.55,0,0,0,148.36,623.09V949.45A130.54,130.54,0,0,0,278.91,1080H801.09A130.56,130.56,0,0,0,931.64,949.45V623.09A130.56,130.56,0,0,0,801.09,492.55"/><path class="cls-2" d="M336.51,24.45C206,85.29,149.4,241,210.23,371.42L293,548.89,411.3,493.72,328.54,316.25A130.54,130.54,0,1,1,565.16,205.91l82.76,177.47h0l118.32-55.17L683.48,150.74C622.65,20.29,467-36.41,336.51,24.45Z"/></svg>