<svg id="Ebene_1" data-name="Ebene 1" xmlns="http://www.w3.org/2000/svg" viewBox="0 0 1080 1080"><defs><style>.cls-1{fill:#010101;}.cls-2{fill:#1d1d1b;}</style></defs><path class="cls-1" d="M1045.87,1034.75,724.94,684.61C797.25,609,837,510,837,405c0-108.16-42.12-209.9-118.63-286.36S540.16,0,432,0,222.1,42.12,145.63,118.64,27,296.84,27,405,69.11,614.9,145.63,691.36,323.83,810,432,810c93.21,0,181.55-31.27,253.16-88.83l320.92,350.08a27,27,0,1,0,39.85-36.45ZM80.94,405c0-193.54,157.46-351,351-351s351,157.46,351,351-157.46,351-351,351S80.94,598.54,80.94,405Z"/><polygon class="cls-2" points="694.38 370.9 466.37 370.9 466.37 142.9 399.87 142.9 399.87 370.9 171.87 370.9 171.87 437.4 399.87 437.4 399.87 665.4 466.37 665.4 466.37 437.4 694.38 437.4 694.38 370.9"/></svg>