<svg id="Ebene_1" data-name="Ebene 1" xmlns="http://www.w3.org/2000/svg" viewBox="0 0 1080 1080"><defs><style>.cls-1{fill:#010101;}</style></defs><path id="Phone" class="cls-1" d="M1075.14,860.81l-5.37-16.19c-12.74-37.85-54.47-77.31-92.8-87.71L835.08,718.15c-38.48-10.47-93.37,3.61-121.52,31.76l-51.35,51.35A544.7,544.7,0,0,1,278.88,417.89l51.35-51.35c28.15-28.15,42.23-83,31.76-121.45l-38.69-142c-10.47-38.4-50-80.13-87.78-92.73L219.33,5c-37.85-12.59-91.82.14-120,28.29L22.55,110.14C8.83,123.79.06,162.83.06,163a906.6,906.6,0,0,0,914.8,916.9c1.27,0,41.45-8.63,55.17-22.28l76.82-76.82C1075,952.62,1087.73,898.66,1075.14,860.81Z"/></svg>