<?xml version="1.0" encoding="UTF-8"?>
<svg id="Ebene_1" data-name="Ebene 1" xmlns="http://www.w3.org/2000/svg" viewBox="0 0 1080 1080">
  <defs>
    <style>
      .cls-1 {
        fill: #010101;
      }
    </style>
  </defs>
  <path class="cls-1" d="M231.43,154.29C103.61,154.29,0,255.78,0,385.71s103.61,231.43,231.43,231.43c27.19,0,52.92-5.56,77.14-14.17v14.17c0,85.1-69.19,154.29-154.29,154.29-42.6,0-77.14,34.55-77.14,77.14s34.55,77.14,77.14,77.14c170.15,0,308.57-138.42,308.57-308.57v-231.43c0-129.94-103.66-231.43-231.43-231.43Zm848.57,231.43c0-127.82-103.61-231.43-231.43-231.43s-231.43,103.61-231.43,231.43,103.61,231.43,231.43,231.43c27.19,0,52.92-5.56,77.14-14.17v14.17c0,85.1-69.19,154.29-154.29,154.29-42.6,0-77.14,34.55-77.14,77.14s34.55,77.14,77.14,77.14c170.15,0,308.57-138.42,308.57-308.57v-231.43Z"/>
</svg>