<?xml version="1.0" encoding="UTF-8"?>
<svg id="Ebene_1" data-name="Ebene 1" xmlns="http://www.w3.org/2000/svg" viewBox="0 0 1080 1080">
  <defs>
    <style>
      .cls-1 {
        fill: #010101;
      }
    </style>
  </defs>
  <path class="cls-1" d="M231.43,462.86c-27.19,0-52.92,5.54-77.14,14.22v-14.22c0-85.1,69.19-154.29,154.29-154.29,42.6,0,77.14-34.55,77.14-77.14s-34.47-77.14-77.14-77.14C138.42,154.29,0,292.66,0,462.86v231.43c0,127.82,103.61,231.43,231.43,231.43s231.43-103.61,231.43-231.43-103.66-231.43-231.43-231.43Zm617.14,0c-27.19,0-52.92,5.56-77.14,14.17v-14.17c0-85.1,69.19-154.29,154.29-154.29,42.6,0,77.14-34.55,77.14-77.14s-34.55-77.14-77.14-77.14c-170.15,0-308.57,138.42-308.57,308.57v231.43c0,127.82,103.61,231.43,231.43,231.43s231.43-103.61,231.43-231.43-103.66-231.43-231.43-231.43Z"/>
</svg>