<svg id="Ebene_1" data-name="Ebene 1" xmlns="http://www.w3.org/2000/svg" viewBox="0 0 1080 1080"><defs><style>.cls-1{fill:#1d1d1b;}</style></defs><path class="cls-1" d="M539.08-.38c-298.24,0-540,241.76-540,540s241.76,540,540,540,540-241.77,540-540S837.31-.38,539.08-.38ZM540,975c-240.24,0-435-194.76-435-435S299.76,105,540,105,975,299.76,975,540,780.24,975,540,975Z"/><polygon class="cls-1" points="399.02 194.62 334.13 259.51 614.24 539.62 334.13 819.72 399.02 884.62 679.13 604.51 679.13 604.51 744.02 539.62 744.02 539.62 679.13 474.72 399.02 194.62"/></svg>