<svg id="Ebene_1" data-name="Ebene 1" xmlns="http://www.w3.org/2000/svg" viewBox="0 0 1080 1080"><path d="M1065.31,933.8,855,723.48a50.56,50.56,0,0,0-35.86-14.77H784.74a436.6,436.6,0,0,0,92.82-270C877.56,196.3,681.17-.09,438.78-.09S0,196.3,0,438.69,196.4,877.47,438.78,877.47a436.58,436.58,0,0,0,270-92.82V819a50.6,50.6,0,0,0,14.77,35.86l210.32,210.32a50.42,50.42,0,0,0,71.51,0l59.7-59.7A50.86,50.86,0,0,0,1065.31,933.8ZM438.78,708.71c-149.14,0-270-120.67-270-270,0-149.14,120.67-270,270-270,149.15,0,270,120.67,270,270C708.8,587.83,588.14,708.71,438.78,708.71Z"/></svg>