<svg id="Ebene_1" data-name="Ebene 1" xmlns="http://www.w3.org/2000/svg" viewBox="0 0 1080 1440"><defs><style>.cls-1{fill:#010101;}</style></defs><path class="cls-1" d="M1072.48,1240.78,734.68,872.22c76.11-79.63,117.94-183.77,117.94-294.32C852.62,464,808.29,357,727.74,276.47S540.16,151.59,426.31,151.59,205.37,195.92,124.88,276.47,0,464,0,577.9,44.34,798.84,124.88,879.33s187.58,124.88,301.43,124.88c98.11,0,191.1-32.91,266.47-93.51l337.81,368.51a28.43,28.43,0,0,0,42-38.37ZM56.78,577.9c0-203.72,165.75-369.47,369.47-369.47S795.72,374.18,795.72,577.9,630,947.37,426.25,947.37,56.78,781.62,56.78,577.9Z"/></svg>