<svg id="Ebene_1" data-name="Ebene 1" xmlns="http://www.w3.org/2000/svg" viewBox="0 0 1080 1080"><path d="M1065.9,392.72l-270,255C767.44,674.57,720,654.64,720,615V480c-271.08,1.82-385.44,65.84-308.95,321.29,8.4,28.07-24.09,49.81-46.89,32.49C291.1,778.32,225,672.17,225,565c0-269.88,220.5-323.44,495-325V105c0-39.7,47.47-59.56,75.9-32.71l270,255A45,45,0,0,1,1065.9,392.72ZM720,770.87V900H120V300h95.47a22.44,22.44,0,0,0,16.21-6.92c28-29.19,60.45-52.3,95.65-70.65C348.2,211.56,340.47,180,316.94,180H90A90,90,0,0,0,0,270V930a90,90,0,0,0,90,90H750a90,90,0,0,0,90-90V763.49a22.49,22.49,0,0,0-30-21.19,134.67,134.67,0,0,1-64.1,6.33A22.54,22.54,0,0,0,720,770.87Z"/></svg>