<?xml version="1.0" encoding="UTF-8"?>
<svg id="Ebene_1" data-name="Ebene 1" xmlns="http://www.w3.org/2000/svg" viewBox="0 0 1080 1080">
  <defs>
    <style>
      .cls-1 {
        fill: #010101;
      }
    </style>
  </defs>
  <path class="cls-1" d="M62.1,432H1017.9c34.26,0,62.1-27.84,62.1-62.1,0-12.32-3.71-24.3-10.46-34.42l-127.57-191.36c-15.02-22.61-40.16-36.11-67.33-36.11H205.37c-27,0-52.31,13.5-67.33,36.11L10.46,335.31c-6.75,10.29-10.46,22.27-10.46,34.42,0,34.43,27.84,62.27,62.1,62.27Zm45.9,54v405c0,44.72,36.28,81,81,81h378c44.72,0,81-36.28,81-81V486h-108v270H216V486H108Zm756,0v432c0,29.87,24.13,54,54,54s54-24.13,54-54V486h-108Z"/>
</svg>