<?xml version="1.0" encoding="UTF-8"?>
<svg id="Ebene_1" data-name="Ebene 1" xmlns="http://www.w3.org/2000/svg" viewBox="0 0 1080 1080">
  <defs>
    <style>
      .cls-1 {
        fill: #010101;
      }
    </style>
  </defs>
  <path class="cls-1" d="M191.85,200.58c-4.87,.22-8.89,3.88-9.58,8.71-.87,5.23-118.53,801.03-118.53,801.03l273.67,67.93V136.07c-17.44,17.44-64.49,62.77-64.49,62.77,0,0-76.71,1.74-81.06,1.74Z"/>
  <path class="cls-1" d="M933.53,330.35c-3.46-28.74-4.35-29.61-34.84-39.19-.87-.87-42.7-13.96-102.83-32.25-6.14-46.2-28.76-105.47-58.4-152.54C695.55,39.24,643.29,1.79,591.04,.05c-27.04-.81-49.69,7.9-67.1,27-.87,1.74-2.61,2.61-3.48,4.35-2.85-.68-5.78-.97-8.71-.87-40.11,0-74.03,23.62-96.76,67.19-6.27,12.33-11.52,25.16-15.7,38.34-20.05-6.1-32.25-9.58-32.25-9.58-3.18-.46-6.37-.75-9.58-.87v954.38l658.81-114.27s-80.13-613.61-82.74-635.38ZM484.7,163.09c-19.17-6.1-36.61-11.32-52.3-15.68,8.73-27.06,27.89-71.48,68-79.32-12.21,31.38-15.7,68.87-15.7,95Zm106.34-127.24c80.19,1.74,150.78,128.11,169.85,211.7-28.68-8.71-60.05-18.29-91.45-27.89-10.45-53.24-35.73-108.93-68.85-144.68-13.06-13.06-27.02-24.41-40.96-31.38,9.56-5.42,20.42-8.1,31.4-7.75Zm-54.04,34.95c14.81,6.97,27.89,18.31,37.47,27.89,24.41,26.93,45.33,67.89,55.78,108.87-37.47-11.34-75.86-23.54-110.69-33.99-.87-28.76,2.61-71.48,17.44-102.77Zm123.76,444.43c3.48,55.76,150.78,67.98,159.49,199.57,6.1,103.73-54.91,174.32-142.94,179.56-106.32,6.97-164.71-55.78-164.71-55.78l22.64-95.8s58.4,44.46,105.47,40.98c30.48-1.74,41.85-27.02,40.96-44.46-4.35-73.2-124.63-68.85-132.47-189.12-6.97-101.11,59.27-203.08,205.69-212.68,56.61-3.48,85.42,10.47,85.42,10.47l-33.12,125.41s-37.47-17.42-81.93-13.93c-64.49,4.38-65.36,45.31-64.49,55.78Z"/>
</svg>