<svg id="Ebene_1" data-name="Ebene 1" xmlns="http://www.w3.org/2000/svg" viewBox="0 0 1080 1080"><defs><style>.cls-1{fill:#010101;}</style></defs><path class="cls-1" d="M880,155.27q99.86,85.44,199.39,171.29c-65.36,58.75-133.31,114.91-199.68,172.64.15-38.63-.25-77.24.13-115.84-42.1.07-84.21-.24-126.3.13-20.23.05-39.27,10.15-52.9,24.74Q519.35,597,337.81,785.55c-13.43,13.94-32.16,23.05-51.73,22.87-76.87.49-153.78-.37-230.63.51-28.57-.84-53.08-26.73-53.06-55.16-1.41-30.83,25.76-57.4,56-58.31,61.05-.58,122.18.33,183.23-.42,22.27-.13,41.89-13.12,55.94-29.52q178.58-186,357.35-371.76a74.29,74.29,0,0,1,52.48-24.05c57.49-.24,115,.23,172.46-.22C879.77,231.42,879.46,193.35,880,155.27Z"/><path class="cls-1" d="M45.27,269.45c83.11-.69,166.5.07,249.74-.18,21.45-.95,43.31,7.09,57.89,23.12C387.49,328,421.71,364,456.1,399.78c14.1,14.41,21.83,35.37,16.94,55.36-5.34,24.47-28.77,43.93-54,43.68-17.13.78-32.91-7.95-45.52-18.79-23.58-25.13-46.18-51.24-70.14-76-13.72-14-33.44-20.85-52.81-20.58-62-.27-124.06.17-186.09-.2-24.69-.76-51-12.42-60.13-36.93C-9.67,315.08,11.79,275.46,45.27,269.45Z"/><path class="cls-1" d="M552.31,587.89c21.43-17.13,55-14.65,73.93,5.14,25.9,26.55,51.26,53.66,77.19,80.18a72,72,0,0,0,52.46,22.12c41.35-.15,82.7.18,124.08-.2-.42-37.92-.16-75.84-.09-113.75Q980.5,666.61,1080,753.17q-99.56,86.26-199.94,171.56c-.85-38.79.08-77.59-.42-116.37-57.56-.54-115.11-.05-172.67-.25-19.83-.18-38.93-9.64-52.21-24.18C617.69,745.66,580,708,543.31,669.38,522.06,646.18,526.78,606,552.31,587.89Z"/></svg>