<svg id="Ebene_1" data-name="Ebene 1" xmlns="http://www.w3.org/2000/svg" viewBox="0 0 1080 1080"><defs><style>.cls-1{fill:#010101;}</style></defs><path class="cls-1" d="M1080,424.15q0,14.28-16.88,31.15L827.52,685.06l55.82,324.52a98.62,98.62,0,0,1,.65,13q0,13.64-6.81,23t-19.8,9.41q-12.33,0-26-7.79L540,894.05,248.58,1047.22q-14.28,7.8-26,7.79-13.63,0-20.44-9.41t-6.82-23a104.52,104.52,0,0,1,1.3-13l55.82-324.52L16.23,455.3Q0,437.78,0,424.15q0-24,36.35-29.86l325.81-47.38L508.2,51.6Q520.53,25,540,25T571.8,51.6l146,295.31,325.81,47.38Q1080,400.14,1080,424.15Z"/></svg>