<svg id="Ebene_1" data-name="Ebene 1" xmlns="http://www.w3.org/2000/svg" viewBox="0 0 1080 1080"><defs><style>.cls-1{fill:#010101;}</style></defs><path class="cls-1" d="M769.79,625.35,936.6,463.08,705.53,429.33l-42.84-6.49L643.22,383.9,540,174.89V800l38.29,20.13,206.41,109-39-230.42L738,655.86Zm293.38-170L827.56,685.07l55.82,324.54q3.24,21.42-3.9,33.42t-22.07,12q-11,0-26-7.79L540,894.07,248.58,1047.25q-14.93,7.8-26,7.79-14.94,0-22.07-12t-3.9-33.42l55.82-324.54L16.21,455.3Q-4.57,434.53,1.28,416.68t35.05-22.4L362.17,346.9l146-295.33Q521.19,25,540,25q18.16,0,31.8,26.61l146,295.33,325.84,47.38q29.21,4.55,35,22.4T1063.17,455.3Z"/></svg>