<svg id="Ebene_1" data-name="Ebene 1" xmlns="http://www.w3.org/2000/svg" viewBox="0 0 1080 1080"><path d="M632.81,877.5h50.63a25.31,25.31,0,0,0,25.31-25.31V396.56a25.31,25.31,0,0,0-25.31-25.31H632.81a25.31,25.31,0,0,0-25.31,25.31V852.19A25.31,25.31,0,0,0,632.81,877.5ZM978.75,168.75H804.92L733.2,49.15A101.25,101.25,0,0,0,646.33,0H433.67a101.26,101.26,0,0,0-86.83,49.15l-71.76,119.6H101.25A33.75,33.75,0,0,0,67.5,202.5v33.75A33.75,33.75,0,0,0,101.25,270H135V978.75A101.25,101.25,0,0,0,236.25,1080h607.5A101.25,101.25,0,0,0,945,978.75h0V270h33.75a33.75,33.75,0,0,0,33.75-33.75V202.5A33.75,33.75,0,0,0,978.75,168.75ZM430,107.39a12.67,12.67,0,0,1,10.89-6.14H639.14A12.64,12.64,0,0,1,650,107.39l36.83,61.36H393.17ZM843.75,978.75H236.25V270h607.5ZM396.56,877.5h50.63a25.31,25.31,0,0,0,25.31-25.31V396.56a25.31,25.31,0,0,0-25.31-25.31H396.56a25.31,25.31,0,0,0-25.31,25.31V852.19A25.31,25.31,0,0,0,396.56,877.5Z"/></svg>