<?xml version="1.0" encoding="UTF-8"?>
<svg id="Ebene_1" data-name="Ebene 1" xmlns="http://www.w3.org/2000/svg" viewBox="0 0 1080 1080">
  <defs>
    <style>
      .cls-1 {
        fill: #010101;
      }
    </style>
  </defs>
  <path class="cls-1" d="M189,108c-44.72,0-81,36.28-81,81v81H27c-14.85,0-27,12.15-27,27s12.15,27,27,27H459c14.85,0,27,12.15,27,27s-12.15,27-27,27H81c-14.85,0-27,12.15-27,27s12.15,27,27,27H405c14.85,0,27,12.15,27,27s-12.15,27-27,27H27c-14.85,0-27,12.15-27,27s12.15,27,27,27H351c14.85,0,27,12.15,27,27s-12.15,27-27,27H108v216c0,89.44,72.56,162,162,162s162-72.56,162-162h216c0,89.44,72.56,162,162,162s162-72.56,162-162h54c29.87,0,54-24.13,54-54s-24.13-54-54-54v-193.56c0-28.69-11.31-56.19-31.56-76.44l-130.44-130.44c-20.25-20.25-47.76-31.56-76.44-31.56h-85.56v-81c0-44.72-36.28-81-81-81H189ZM918,508.44v31.56h-216v-162h85.56l130.44,130.44ZM270,891c-44.72,0-81-36.28-81-81s36.28-81,81-81,81,36.28,81,81-36.28,81-81,81Zm621-81c0,44.72-36.28,81-81,81s-81-36.28-81-81,36.28-81,81-81,81,36.28,81,81Z"/>
</svg>