<svg id="Ebene_1" data-name="Ebene 1" xmlns="http://www.w3.org/2000/svg" viewBox="0 0 1080 1080"><defs><style>.cls-1{fill:#1d1d1b;}</style></defs><path class="cls-1" d="M540,0C241.77,0,0,241.77,0,540s241.77,540,540,540,540-241.77,540-540S838.23,0,540,0Zm0,975c-240.24,0-435-194.76-435-435S299.76,105,540,105,975,299.76,975,540,780.24,975,540,975Z"/><polygon class="cls-1" points="604.89 399.95 604.89 399.95 540 335.05 540 335.05 475.11 399.95 195 680.05 259.89 744.95 540 464.84 820.11 744.95 885 680.05 604.89 399.95"/></svg>