<?xml version="1.0" encoding="UTF-8"?><svg id="a" xmlns="http://www.w3.org/2000/svg" viewBox="0 0 1080 1080"><path d="M915.67,198.07c-.3-.58-.8-1.04-1.4-1.29-70.02-32.13-143.92-55.04-219.83-68.15-1.41-.26-2.84,.41-3.53,1.67-10.06,18.26-19.2,37.02-27.37,56.2-81.83-12.42-165.07-12.42-246.91,0-8.23-19.23-17.51-38-27.8-56.2-.72-1.23-2.12-1.89-3.53-1.67-75.92,13.09-149.82,36-219.84,68.16-.6,.25-1.11,.69-1.45,1.24C24,407.12-14.35,611.07,4.46,812.49c.11,1,.61,1.91,1.41,2.53,81.53,60.37,172.72,106.44,269.68,136.27,1.4,.42,2.91-.08,3.79-1.24,20.83-28.34,39.28-58.34,55.17-89.71,.85-1.68,.18-3.74-1.5-4.59-.12-.06-.24-.11-.37-.16-29.1-11.13-57.27-24.56-84.25-40.14-1.65-.97-2.2-3.09-1.23-4.74,.23-.39,.53-.73,.89-1,5.66-4.24,11.33-8.65,16.73-13.11,.98-.81,2.33-.99,3.49-.47,176.75,80.66,368.1,80.66,542.76,0,1.16-.55,2.54-.39,3.53,.43,5.41,4.46,11.07,8.91,16.77,13.15,1.53,1.14,1.84,3.31,.7,4.84-.27,.36-.61,.67-1,.9-26.92,15.71-55.11,29.13-84.29,40.1-1.78,.68-2.67,2.67-1.99,4.44,.05,.12,.1,.24,.16,.35,16.16,31.19,34.58,61.16,55.13,89.66,.86,1.2,2.38,1.72,3.79,1.29,97.13-29.72,188.48-75.8,270.11-136.26,.8-.59,1.32-1.49,1.41-2.48,22.53-232.87-37.71-435.15-159.68-614.47ZM360.9,689.84c-53.21,0-97.06-48.83-97.06-108.81s43-108.81,97.06-108.81,97.91,49.26,97.06,108.81c0,59.98-43,108.81-97.06,108.81Zm358.86,0c-53.21,0-97.06-48.83-97.06-108.81s43-108.81,97.06-108.81,97.91,49.26,97.06,108.81c0,59.98-42.57,108.81-97.06,108.81Z"/></svg>