<svg id="Ebene_1" data-name="Ebene 1" xmlns="http://www.w3.org/2000/svg" viewBox="0 0 1080 1080"><defs><style>.cls-1{fill:#3c5999;}</style></defs><path class="cls-1" d="M540,0C241.77,0,0,241.77,0,540c0,276.69,208.11,504.77,476.34,536.28-6.88-.91-13.68-2-20.34-3.28V696H319.5V540H456c5.45-94.91-39.66-296.74,172.5-327.1,93.39-3.84,151.17,9.82,151.17,9.82v133C577,343.58,634.14,436.84,624.27,540H772.5l-24,156H624v377c-7.87,1.54-17.2,2.93-27.55,4.08C868.15,1048.86,1080,819.17,1080,540,1080,241.77,838.23,0,540,0Z"/></svg>