<svg id="Ebene_1" data-name="Ebene 1" xmlns="http://www.w3.org/2000/svg" viewBox="0 0 1080 1080"><defs><style>.cls-1{fill:#1d1d1b;}</style></defs><path class="cls-1" d="M749.39,0H330.61c-174.53,0-316,141.49-316,316V764c0,174.53,141.49,316,316,316H749.39c174.53,0,316-141.49,316-316V316C1065.41,141.49,923.92,0,749.39,0ZM968.11,765.32C968.11,883.88,872,980,753.43,980H326.57C208,980,111.89,883.88,111.89,765.32V314.68C111.89,196.12,208,100,326.57,100H753.43C872,100,968.11,196.12,968.11,314.68Z"/><path class="cls-1" d="M540,253c-158.52,0-287,128.51-287,287S381.48,827,540,827,827,698.52,827,540,698.52,253,540,253Zm0,471.89A184.86,184.86,0,1,1,724.86,540,184.85,184.85,0,0,1,540,724.86Z"/><circle class="cls-1" cx="827.03" cy="250.05" r="48.65"/></svg>