<svg id="Ebene_1" data-name="Ebene 1" xmlns="http://www.w3.org/2000/svg" viewBox="0 0 1080 1440"><defs><style>.cls-1{fill:#1d1d1b;}</style></defs><path class="cls-1" d="M755.2,165H324.8C145.42,165,0,310.42,0,489.8V950.2C0,1129.58,145.42,1275,324.8,1275H755.2c179.38,0,324.8-145.42,324.8-324.8V489.8C1080,310.42,934.58,165,755.2,165ZM980,951.58c0,121.86-98.78,220.64-220.64,220.64H320.64c-121.86,0-220.64-98.78-220.64-220.64V488.42c0-121.86,98.78-220.64,220.64-220.64H759.36C881.22,267.78,980,366.56,980,488.42Z"/><path class="cls-1" d="M540,425c-162.92,0-295,132.08-295,295s132.08,295,295,295S835,882.92,835,720,702.92,425,540,425Zm0,485c-104.93,0-190-85.07-190-190s85.07-190,190-190,190,85.07,190,190S644.93,910,540,910Z"/><circle class="cls-1" cx="835" cy="422" r="50"/></svg>