<svg id="Ebene_1" data-name="Ebene 1" xmlns="http://www.w3.org/2000/svg" viewBox="0 0 1080 1080"><defs><style>.cls-1{fill:#2267b0;}</style></defs><path class="cls-1" d="M994.2,0H85.8A85.79,85.79,0,0,0,0,85.8V994.2A85.79,85.79,0,0,0,85.8,1080H994.2a85.79,85.79,0,0,0,85.8-85.8V85.8A85.79,85.79,0,0,0,994.2,0ZM316.45,920.62h-155v-516h155Zm-18-622.47q-25,26.49-60.31,26.47-34.83,0-59.78-26.47t-25-63q0-37.11,25-63.3t59.78-26.2q35.34,0,60.31,26.2t25,63.3Q323.45,271.68,298.49,298.15ZM917.91,920.62h-155V606q0-103.41-77.23-103.41-55.17,0-108.77,85.31V920.62h-155v-516h155V478q68.63-84.37,160.82-84.39,77,0,128.59,51.44t51.59,147.22Z"/></svg>