<svg id="Ebene_1" data-name="Ebene 1" xmlns="http://www.w3.org/2000/svg" viewBox="0 0 1080 1080"><defs><style>.cls-1{fill:#1d1d1b;}.cls-2{fill:#fff;fill-rule:evenodd;}</style></defs><circle class="cls-1" cx="540" cy="540" r="540"/><path class="cls-2" d="M344.22,1042c-17.53-101.75,5.27-172.29,20.2-230.67q13.29-59,26.57-118,9-35.61,18.07-71.22-5.31-14.88-10.63-29.77c-8.08-29.18-7.57-75.25,1.07-103.11,10.88-35.11,47.58-89.27,102-78.66,47.52,9.26,65.38,56.43,52.09,112.68-17.23,72.94-88.5,204,12.76,236,36.65,11.57,75.88-4.41,97.79-18.07,59.5-37.1,116.42-150.78,96.73-258.3-15-81.91-56-137.82-123.3-166.89-129.32-55.84-260.33,10.14-311.46,94.6-17.76,29.34-25.17,63.13-31.89,104.18-7.23,44.16,10.29,92,25.51,118l19.14,28.7C341.5,674,323.24,731,317.65,739c-27.18-.87-48.8-26-61.66-42.52-46.81-60.17-78.41-157.3-47.83-259.37,34.24-114.3,113.11-185.71,227.48-220,23.77-7.14,47-7.22,74.41-11.69,40.08-6.54,91.24-2.24,125.43,6.37,36,9.07,70.38,22,98.86,39.33,73,44.53,123.29,110.75,144.57,207.29,6.48,29.43,6.55,72.89,1.06,103.11C857,687.67,813.18,772.17,715.2,821.92c-44,22.36-121,37.25-175.39,13.82-27.45-11.82-40-30-59.53-48.9L465.4,842.12Q452.11,892.07,438.83,942c-16.26,41.2-58.47,113.74-58.47,113.74S380.22,1055.42,344.22,1042Z"/></svg>