<svg id="Ebene_1" data-name="Ebene 1" xmlns="http://www.w3.org/2000/svg" viewBox="0 0 1080 1080"><path d="M964.29,0H115.71A115.72,115.72,0,0,0,0,115.71V964.29A115.72,115.72,0,0,0,115.71,1080H964.29A115.72,115.72,0,0,0,1080,964.29V115.71A115.72,115.72,0,0,0,964.29,0ZM270,925.71A115.71,115.71,0,1,1,385.71,810,115.7,115.7,0,0,1,270,925.71Zm379.77,0H567a27.56,27.56,0,0,1-27.59-25.63c-12.57-193-166.92-347-359.49-359.49A27.57,27.57,0,0,1,154.29,513V430.23a27.53,27.53,0,0,1,28.91-27.54c266.49,14.4,479.72,227.9,494.11,494.11a27.53,27.53,0,0,1-27.54,28.91Zm248.37,0H815.37a27.62,27.62,0,0,1-27.55-26.61C774.32,570,510.1,305.68,180.9,292.18a27.62,27.62,0,0,1-26.61-27.55V181.86a27.51,27.51,0,0,1,28.41-27.55c404.59,14.52,728.54,340.37,743,743a27.53,27.53,0,0,1-27.56,28.41Z"/></svg>