<svg id="Ebene_1" data-name="Ebene 1" xmlns="http://www.w3.org/2000/svg" viewBox="0 0 1080 1080"><path d="M308.77,925.61A154.39,154.39,0,1,1,154.39,771.23,154.39,154.39,0,0,1,308.77,925.61Zm423.46,113.91C712.09,666.82,413.57,367.93,40.48,347.77A38.54,38.54,0,0,0,0,386.32V502.2a38.6,38.6,0,0,0,35.89,38.62c269.59,17.56,485.69,233.12,503.29,503.29A38.6,38.6,0,0,0,577.79,1080H693.67a38.54,38.54,0,0,0,38.56-40.48Zm347.74.69C1059.74,476.54,606.21,20.36,39.79,0A38.53,38.53,0,0,0,0,38.61V154.49a38.69,38.69,0,0,0,37.25,38.57c460.88,18.9,830.8,388.88,849.69,849.69A38.69,38.69,0,0,0,925.51,1080h115.88A38.54,38.54,0,0,0,1080,1040.21Z"/></svg>