<svg id="Ebene_1" data-name="Ebene 1" xmlns="http://www.w3.org/2000/svg" viewBox="0 0 1080 1080"><defs><style>.cls-1{fill:#2ca7df;}</style></defs><path class="cls-1" d="M1024.06,645.73c7-33.75,11.33-69.68,11.33-105.61,0-273.68-221.59-495-495-495A509.91,509.91,0,0,0,434.75,56.42,267.82,267.82,0,0,0,270.06,0C121,0,0,121,0,270.06A267.88,267.88,0,0,0,56.18,434.51c-7,33.76-11.33,69.68-11.33,105.61,0,273.68,221.59,495,495,495a509.91,509.91,0,0,0,105.61-11.33A268.94,268.94,0,0,0,809.94,1080C959,1080,1080,959,1080,809.94a266,266,0,0,0-55.94-164.21ZM554.83,866.36c-158.18,0-290.56-70.41-290.56-156.73,0-38.58,21.7-73.78,71.13-73.78,75.24,0,82.23,108.26,212.44,108.26,62,0,102-27.49,102-63.41,0-45.09-38.58-52.09-101.27-67.52-150.7-37.13-284-53-284-210.26,0-142.75,141.3-195.55,263.07-195.55,132.86,0,267.17,52.8,267.17,133.58,0,40.75-27.49,76.68-73.06,76.68-68.24,0-70.41-80.78-180.85-80.78-62,0-101.27,16.88-101.27,54.26,0,47.74,50.15,52.56,166.62,79.57C706,493.1,824.89,535.3,824.89,657.79c0,142.5-137.68,208.57-270.06,208.57Z"/></svg>