<svg id="Ebene_1" data-name="Ebene 1" xmlns="http://www.w3.org/2000/svg" viewBox="0 0 1080 1080"><defs><style>.cls-1{fill:#1d1d1b;}.cls-2{fill:#fff;fill-rule:evenodd;}</style></defs><circle class="cls-1" cx="540" cy="540" r="540"/><path id="weiß" class="cls-2" d="M568.06,198.5H665.2C669.63,274.4,724.05,328,782.58,351l49.92,10.79V475.08c-76.74,1.55-144.88-29.23-167.3-80.95h-1.35V606c0,42.23,3.32,89.67-6.74,122.78-17.5,57.57-51.15,96.19-98.49,124.12-34.06,20.09-90.1,36.91-144.37,24.29C331.32,857.84,273.84,800,253.7,717.93c-28.51-116.16,46.6-198.57,117.38-232.06,22.86-10.81,65.73-26.82,98.49-17.54l-1.35,101.19c-19.71-5.63-41.33,2.23-54,8.1-105.59,49-66.18,225.89,60.72,201,106-20.78,91.75-111.35,91.74-234.76Z"/></svg>