<svg id="Ebene_1" data-name="Ebene 1" xmlns="http://www.w3.org/2000/svg" viewBox="0 0 1080 1080"><defs><style>.cls-1{fill:#399bd6;}.cls-2{fill:#fff;fill-rule:evenodd;}</style></defs><circle class="cls-1" cx="540" cy="540" r="540"/><path class="cls-2" d="M667.51,308.18c55.15-4.58,81.33,18.25,112.24,40.15,31.61-4.29,57.88-17.32,82.14-29.45-5.51,28.37-27.77,56.55-52,66.92v2.68l68.44-18.74c-11.84,31.67-43,45.79-63,69.59,3,217.11-182.23,423.84-429.83,380.08C326.39,809,284.2,784.66,237.69,765.87V763.2c79.22,2.32,153.79-12.25,188.9-53.53-58.15-2.54-109-40.36-117.72-91,16.64,2.73,38.8,4.4,52-2.67-56.37-9.24-99.58-59.74-98.55-125.8h2.73l49.28,13.38L289.7,479.48c-22.6-48.68-30.45-89.76-10.95-147.21C357.85,390.67,412.94,464,552.52,466.1,523.56,367.12,612.36,312.75,667.51,308.18Z"/></svg>