<svg id="Ebene_1" data-name="Ebene 1" xmlns="http://www.w3.org/2000/svg" viewBox="0 0 1080 1440"><defs><style>.cls-1,.cls-2{fill:#095e54;}.cls-1{fill-rule:evenodd;}</style></defs><path id="Phone" class="cls-1" d="M338.28,466.78c20,.87,35.09-.67,55,.2,12,7.91,55.54,118.35,57.27,140.55L403.74,675.2c19.4,40.73,147.1,193.63,208.22,174.39l59.87-70.27c47.61,1.81,113.08,39.62,143.15,65.07C816.7,967.7,698.43,999.6,593.74,958.91,460.8,907.24,348.31,810.15,286.61,688.22,249.62,591.65,274.35,511.36,338.28,466.78Z"/><path class="cls-2" d="M540,180C241.77,180,0,421.77,0,720A537.44,537.44,0,0,0,72.76,990.85L26.6,1163.12-.32,1263.51h0v0l100.38-26.92L274,1190a537.47,537.47,0,0,0,266,70c298.23,0,540-241.77,540-540S838.23,180,540,180Zm0,980a437.93,437.93,0,0,1-237.11-69.29h0l-2.06-1.24-5.68,1.69L127,1136.22l49-169h0A438,438,0,0,1,100,720c0-243,197-440,440-440S980,477,980,720,783,1160,540,1160Z"/></svg>