<svg id="Ebene_1" data-name="Ebene 1" xmlns="http://www.w3.org/2000/svg" viewBox="0 0 1080 1440"><defs><style>.cls-1{fill:#e52521;}.cls-2{fill:#282929;}</style></defs><path class="cls-1" d="M1056.17,291.2a135.77,135.77,0,0,0-95.59-95.59c-83.81-22.86-421.13-22.86-421.13-22.86s-337.31.7-421.12,23.55a135.77,135.77,0,0,0-95.59,95.59c-25.35,148.92-35.19,375.83.69,518.79A135.76,135.76,0,0,0,119,906.26c83.81,22.86,421.13,22.86,421.13,22.86s337.31,0,421.12-22.86a135.76,135.76,0,0,0,95.59-95.58C1083.59,661.55,1091.84,434.78,1056.17,291.2ZM432,713.11V388.76L712,550.94Z"/><path class="cls-2" d="M232,1258.06c-9.19-6.23-15.71-15.71-19.56-28.76s-5.63-30.23-5.63-51.87v-29.35c0-21.64,2.07-39.43,6.52-52.47,4.44-13.34,11.26-22.83,20.75-28.75s21.64-9.19,36.76-9.19c14.82,0,27,3,35.87,9.19s15.71,15.71,19.86,28.75,6.22,30.53,6.22,52.17v29.35c0,21.64-2.07,38.83-6.22,51.88s-10.67,22.53-19.86,28.75c-9.19,5.93-21.64,9.19-37.06,9.19C253.63,1267.25,241.18,1264,232,1258.06Zm51.29-31.72c2.67-6.52,3.85-17.49,3.85-32.31v-63.14c0-14.53-1.18-25.2-3.85-31.72-2.67-6.82-7.12-10.08-13.34-10.08s-10.38,3.26-13.05,10.08-3.85,17.19-3.85,31.72V1194c0,14.82,1.19,25.79,3.56,32.31s6.82,9.78,13.34,9.78Q279.27,1236.12,283.28,1226.34ZM933.07,1178v10.37l1.18,29.35c.89,6.52,2.37,11.27,4.74,14.23s6.23,4.45,11.27,4.45c6.82,0,11.56-2.67,13.93-8,2.67-5.33,3.86-14.23,4.15-26.38l39.43,2.37a49.35,49.35,0,0,1,.29,7.12c0,18.67-5,32.6-15.41,41.79s-24.6,13.94-43.28,13.94c-22.53,0-38.24-7.12-47.13-21S888.6,1210.33,888.6,1181v-35.86c1-50.4,9.87-87.31,62-87.45,15.71,0,27.56,3,35.86,8.59s14.23,14.53,17.79,26.68,5,28.76,5,50.1v34.68H933.07Zm5.92-85.37c-2.37,3-3.85,7.41-4.74,13.93s-1.18,29.64-1.18,29.64v14.53h33.2v-14.53c0,14.53-.3-22.82-1.19-29.64s-2.37-11.56-4.74-14.23-5.93-4.15-10.67-4.15Q942.11,1088.65,939,1092.65Zm-817.86,81.52L69.25,986.82H114.6s21.2,94,28.46,138.14h1.19c8.24-46.9,29.05-138.14,29.05-138.14h45.35l-52.47,187v89.82H121.42v-89.52Z"/><path id="A" class="cls-2" d="M479.81,1061.52V1264H444.24l-3.85-24.9h-.89c-9.78,18.67-24.31,28.16-43.58,28.16-34.89-.09-38.77-29.65-39.13-54.55V1061.52h45.65V1210c0,8.9.89,15.42,3,19.27,4.21,8.24,15.12,6.14,21,2.08a23.75,23.75,0,0,0,8-9.19V1061.52Z"/><path class="cls-2" d="M603.72,1023.58H558.37V1264H513.9V1023.58H468.55V986.82H603.43v36.76Zm260.57,70.25c-2.67-12.75-7.11-21.93-13.34-27.86-6.22-5.64-14.52-8.6-25.49-8.6a41.82,41.82,0,0,0-23.42,7.11,48.86,48.86,0,0,0-16.9,18.68h-.29V976.44H741v287.25h37.65l4.75-19.27h.88A41.57,41.57,0,0,0,800,1260.73a48.22,48.22,0,0,0,23.41,5.92c15.42,0,26.68-7.11,34.09-21.34,7.12-14.23,11-36.46,11-66.4v-32C868.44,1124.36,867,1106.58,864.29,1093.83Zm-41.79,82.71q0,22.23-1.78,34.68T814.49,1229a14.35,14.35,0,0,1-11.56,5.33c-9.19-.29-14.41-4.44-18.08-10.67v-115a27.45,27.45,0,0,1,8-13.63c6.52-7.32,17.67-7.41,22.83,0,2.66,3.55,4.15,9.78,5.33,18.38.89,8.59,1.49,20.75,1.49,36.75Z"/><path id="A-2" data-name="A" class="cls-2" d="M713.7,1061.52V1264H678.13l-3.85-24.9h-.89c-9.78,18.67-24.31,28.16-43.58,28.16-34.89-.09-38.77-29.65-39.13-54.55V1061.52h45.65V1210c0,8.9.89,15.42,3,19.27,4.21,8.24,15.12,6.14,21,2.08a23.69,23.69,0,0,0,8-9.19V1061.52Z"/></svg>