<svg id="Ebene_1" data-name="Ebene 1" xmlns="http://www.w3.org/2000/svg" viewBox="0 0 1080 1080"><defs><style>.cls-1{fill:#e52521;}</style></defs><path class="cls-1" d="M1056.17,280.26a135.77,135.77,0,0,0-95.59-95.59c-83.81-22.85-421.13-22.85-421.13-22.85s-337.31.69-421.12,23.55A135.74,135.74,0,0,0,22.74,281c-25.35,148.92-35.19,375.83.69,518.79A135.77,135.77,0,0,0,119,895.33c83.81,22.85,421.13,22.85,421.13,22.85s337.31,0,421.12-22.85a135.77,135.77,0,0,0,95.59-95.59C1083.59,650.62,1091.84,423.84,1056.17,280.26ZM432,702.18V377.82L712,540Z"/></svg>