<svg id="Ebene_2" data-name="Ebene 2" xmlns="http://www.w3.org/2000/svg" viewBox="0 0 1080 1440"><defs><style>.cls-1{fill:#010101;}</style></defs><path class="cls-1" d="M704.51,267.74H0V591.12H704.51ZM305,517.63a3.58,3.58,0,0,1-2.54,1.31H274.28c-2.11,0-3.57-.72-4-2.48l-7.42-37.94h-39.3L215.25,516c-.41,2.63-2.38,2.94-4,2.94H185.74a3.94,3.94,0,0,1-3.06-1.16c-1-1.17-.54-3-.38-3.45l36.89-156.61c.75-2.55,1.53-4.63,1.79-13.48,0-2.21,1.66-1.42,3.23-1.42h35c2.16,0,2.92-.78,3.64.69L305.36,515C305.81,516.36,305.7,516.84,305,517.63Zm113.09-28.8-3.17,26.4c-.32,2.26-1.55,3.71-3.67,3.71h-80.1c-3.24,0-2-3-2-4.23V343.35h0c0,.15.86-.54,2-.54h79.16c1.54,0,3-1.27,3.44,1.21l.34,20.06a4.76,4.76,0,0,1-.69,3.5,2.93,2.93,0,0,1-2.09,1.22H363.8v40.42h42.6c1.13,0,6.49,1.91,6.49,4.8v24.14c0,2.2-4.56,2.82-6.71,2.82H363.8v49.09h51.3c.4,0,1.62-2.52,2.41-1.61S418.21,488,418.09,488.83Zm65.75-30c-4.36,0-7.43,0-10.32-.14V515c0,2.9-3.32,4-4.44,4H446.21c-1.13,0,1.33-1.06,1.33-4V343.07c0-.82-2.18-3.32.61-3.32,7.16-.27,21.24-.55,37.92-.55,51.12,0,59.26,37.41,59.43,59.71C545.5,445.17,513.77,458.79,483.84,458.79Z"/><path class="cls-1" d="M457,862.53c-8.74,43.31-32.61,121.27-50.06,184.79H509.38c-11.64-46.19-40.16-138.59-51.8-184.79Z"/><polygon class="cls-1" points="880.64 151.96 880.64 351.48 1080 351.48 880.64 151.96"/><path class="cls-1" d="M231.44,449.65h24.75l-13.67-74.12S232.62,446.76,231.44,449.65Z"/><path class="cls-1" d="M485.52,368.89c-6,0-9.11.16-12,.35V429s-.18,0,.13,0c1.9.07,3.89.19,8.91.19,11,0,29.84-4,29.84-30.91C512.4,379.06,503.4,368.89,485.52,368.89Z"/><path class="cls-1" d="M851.76,152.25H124.16V236h615V622.89h-615V1440h955.7V380.35H851.76Zm-219,1085.64h-65.2c-2.89,0-4.08-1.1-5.24-3.84l-37.26-120.32H391.79l-35.5,119c-.58,4.11-2.32,5.21-5.82,5.21H291.1c-4.08,0-5.23-1.08-4.08-5.87,31.43-104.83,84.4-278.66,121.66-397.19,1.75-6.85,3.5-13.52,4.66-37.51,0-2.75,1.74-4.08,3.48-4.08h80.35c2.89,0,3.48.7,4.65,3.43,43.09,140.46,90.23,294.27,134.45,436.1C637.43,1236.87,636.27,1237.89,632.79,1237.89ZM924.41,1043.3c0,29.35-2.94,43.41-5.29,45.46-7.07,3.42-29.46,4.76-61.89,4.76H737c1.19,52,28.79,88.1,88.33,88.1,21.79,0,44.42-1.43,69.77-14.4,1.76-.68,2.83-.09,2.83,3.33v54.62c0,4.77-.48,6.15-2.83,7.52-23,13.65-47,15.21-84.73,15.9-107.24,0-146-84.63-146-170.65,0-97.63,50.16-174.72,138.53-174.72C889.59,903.23,924.41,979.8,924.41,1043.3Z"/><path class="cls-1" d="M739.14,1035.77H851.76v-11.84c0-19.19-11.06-60.29-53.55-60.29C762.32,963.64,743.54,992.46,739.14,1035.77Z"/></svg>