<svg id="Ebene_2" data-name="Ebene 2" xmlns="http://www.w3.org/2000/svg" viewBox="0 0 1080 1080"><defs><style>.cls-1{fill:#010101;}</style></defs><path class="cls-1" d="M677.94,97.08H87.22V368.23H677.94ZM343,306.6a3,3,0,0,1-2.12,1.11H317.2c-1.77,0-3-.61-3.34-2.08l-6.22-31.82H274.69l-7,31.43c-.35,2.21-2,2.47-3.34,2.47H243a3.29,3.29,0,0,1-2.57-1,3.15,3.15,0,0,1-.32-2.89L271,172.53c.62-2.14,1.28-3.89,1.5-11.3,0-1.86,1.39-1.2,2.7-1.2h29.38c1.81,0,2.45-.65,3.05.58l35.62,143.76C343.64,305.54,343.54,306,343,306.6Zm94.83-24.14-2.66,22.14c-.27,1.89-1.3,3.11-3.08,3.11H364.88c-2.71,0-1.67-2.5-1.67-3.55V160.48h0c0,.13.73-.45,1.67-.45h66.37c1.3,0,2.54-1.07,2.89,1l.29,16.82a4,4,0,0,1-.58,2.94,2.5,2.5,0,0,1-1.75,1H392.26v33.89H428c.95,0,5.44,1.6,5.44,4V240c0,1.85-3.83,2.37-5.63,2.37H392.26V283.5h43c.34,0,1.36-2.11,2-1.35S437.88,281.77,437.78,282.46Zm55.13-25.19c-3.66,0-6.23,0-8.65-.11v47.23c0,2.43-2.79,3.32-3.72,3.32H461.35c-.94,0,1.12-.89,1.12-3.32V160.24c0-.69-1.82-2.78.52-2.78,6-.23,17.81-.46,31.79-.46,42.86,0,49.69,31.36,49.83,50.07C544.61,245.85,518,257.27,492.91,257.27Z"/><path class="cls-1" d="M470.4,595.8c-7.32,36.32-27.33,101.69-42,155h85.89c-9.75-38.74-33.67-116.21-43.43-155Z"/><polygon class="cls-1" points="825.62 0 825.62 167.29 992.78 167.29 825.62 0"/><path class="cls-1" d="M281.28,249.61H302l-11.46-62.15S282.27,247.18,281.28,249.61Z"/><path class="cls-1" d="M494.32,181.89c-5,0-7.64.14-10.06.3v50.1s-.16,0,.1,0c1.6.06,3.27.15,7.48.15,9.19,0,25-3.37,25-25.91C516.86,190.42,509.31,181.89,494.32,181.89Z"/><path class="cls-1" d="M801.41.24H191.32V70.45H707V394.86H191.32V1080H992.66V191.5H801.41ZM617.8,910.53H563.13c-2.42,0-3.42-.92-4.39-3.21L527.5,806.43H415.73L386,906.16c-.48,3.45-1.95,4.37-4.88,4.37H331.3c-3.42,0-4.39-.9-3.42-4.92,26.35-87.89,70.77-233.65,102-333,1.46-5.75,2.93-11.34,3.91-31.46,0-2.3,1.46-3.42,2.92-3.42h67.37c2.42,0,2.92.59,3.89,2.88,36.14,117.78,75.66,246.74,112.74,365.66C621.7,909.68,620.72,910.53,617.8,910.53ZM862.32,747.37c0,24.62-2.47,36.41-4.44,38.13-5.93,2.86-24.69,4-51.89,4H705.21c1,43.58,24.14,73.87,74.06,73.87,18.27,0,37.24-1.19,58.5-12.07,1.47-.57,2.37-.07,2.37,2.79v45.79c0,4-.4,5.17-2.37,6.31-19.26,11.45-39.41,12.76-71,13.34-89.92,0-122.4-71-122.4-143.09,0-81.86,42-146.5,116.15-146.5C833.13,629.93,862.32,694.13,862.32,747.37Z"/><path class="cls-1" d="M707,741.06h94.43v-9.93c0-16.08-9.27-50.55-44.91-50.55C726.41,680.58,710.67,704.75,707,741.06Z"/></svg>