<svg id="Ebene_2" data-name="Ebene 2" xmlns="http://www.w3.org/2000/svg" viewBox="0 0 1080 1440"><defs><style>.cls-1{fill:#010101;}</style></defs><path class="cls-1" d="M462.83,868.31c-8.48,46.2-32,121.27-48.93,184.79H514.09c-11.37-46.2-39.31-135.71-50.68-184.79Z"/><polygon class="cls-1" points="880.64 151.96 880.64 351.48 1080 351.48 880.64 151.96"/><path class="cls-1" d="M459.51,449.65h24.33S476,395.71,472,376.56Z"/><path class="cls-1" d="M704.51,267.74H0V591.12H704.51ZM282.19,377.46H233.87v46.2h44.76c1.46,0,1.44-3.53,1.44-1.91v27.8c0,1.35-.28.1-1.74.1H233.87v67.5c0,1.61-5,1.79-6.73,1.79h-29.7c-1.16,0-4-.45-4-1.79V347.24c0-1.36,2.53-4.43,4.28-4.43H279c2,0,2.32,1.53,2.61,3.16l2.61,29.43C284.51,377,283.93,377.46,282.19,377.46ZM395.28,491.32l-1.72,26.24c-.29,1.63-1.14,1.38-2.57,1.38H310.1c-2,0-1.16-.45-1.16-2.34V347.51c0-1.35-.83-4.7.88-4.7h28.73c1.43,0,2.15,3.07,2.15,4.43V490.07h52.59C395,490.07,395.56,490,395.28,491.32Zm137.26,27.62H500c-1.13,0-1.79.84-2-.24l-7.76-37.29h-39l-7.08,36.75c-.23,1.62-.9.78-2,.78H411.94c-1.58,0-2-.39-1.58-2l37.49-155.42c.67-2.69,1.55-7,1.78-15.86,0-1.08.45-2.85,1.33-2.85h38.41c1.12,0,1.35,1.49,1.8,2.57L533.65,517C534.1,518.57,533.65,518.94,532.54,518.94Z"/><path class="cls-1" d="M851.76,152.25H124.16V236h615V622.89h-615V1440h955.7V380.35H851.76Zm-217,1088.52H571c-2.89,0-4.05-.24-5.21-2.94l-36.42-118.32H398.86l-34.69,117c-.58,4-2.3,4.29-5.77,4.29H300.2c-4,0-5.2-1.16-4-5.78C327,1131.16,378.82,958.92,415.25,841.41c1.72-6.74,3.46-13.87,4.62-37.75,0-2.7,1.74-4.65,3.46-4.65H502c2.89,0,3.46,1.49,4.62,4.19,42.2,139.07,88.45,291.69,131.59,432.12C639.34,1239.36,638.18,1240.77,634.72,1240.77Zm280.56-194v190.82c0,3.41-2.68,3.19-5.46,3.19H850c-3.35,0-4,0-4-4V1046c0-43.51-18.74-73.36-53.19-73.36-21.41,0-30.54,3.24-53.64,13.69v251.25c0,4-2.48,3.2-5.85,3.2H672.87c-3,0-3,.8-3-4V992.46h-1.34c0-20.21,1.22-41.17,0-54.48,0-3.42.86-4.44,4.21-4.44,0,0,92.3-26.92,147.56-22.74C864.51,914.21,915.28,938.23,915.28,1046.76Z"/></svg>