<svg id="Ebene_2" data-name="Ebene 2" xmlns="http://www.w3.org/2000/svg" viewBox="0 0 1080 1080"><defs><style>.cls-1{fill:#010101;}</style></defs><path class="cls-1" d="M475.3,600.65c-7.11,38.73-26.82,101.68-41,154.94h84c-9.53-38.74-33-113.79-42.49-154.94Z"/><polygon class="cls-1" points="825.62 0 825.62 167.29 992.78 167.29 825.62 0"/><path class="cls-1" d="M472.51,249.61h20.4s-6.57-45.23-10-61.29Z"/><path class="cls-1" d="M677.94,97.08H87.22V368.23H677.94Zm-354.11,92H283.32v38.74h37.53c1.22,0,1.2-3,1.2-1.6v23.3c0,1.14-.23.09-1.45.09H283.32V306.2c0,1.36-4.18,1.51-5.65,1.51h-24.9c-1,0-3.35-.38-3.35-1.51V163.74c0-1.14,2.13-3.71,3.59-3.71h68.14c1.71,0,2,1.28,2.18,2.65l2.2,24.67C325.78,188.71,325.29,189.08,323.83,189.08Zm94.82,95.46-1.44,22c-.24,1.36-1,1.16-2.15,1.16H347.23c-1.67,0-1-.38-1-2V164c0-1.14-.7-3.94.74-3.94h24.09c1.19,0,1.8,2.57,1.8,3.71V283.5H417C418.42,283.5,418.89,283.41,418.65,284.54Zm115.09,23.17H506.49c-.95,0-1.5.7-1.69-.2l-6.51-31.27H465.62l-5.94,30.81c-.19,1.36-.76.66-1.69.66H432.62c-1.32,0-1.7-.33-1.32-1.68l31.43-130.31c.57-2.26,1.3-5.85,1.49-13.31,0-.9.38-2.38,1.12-2.38h32.21c.94,0,1.13,1.25,1.51,2.15L534.68,306C535.06,307.4,534.68,307.71,533.74,307.71Z"/><path class="cls-1" d="M801.41.24H191.32V70.45H707V394.86H191.32V1080H992.66V191.5H801.41ZM619.42,913H566c-2.42,0-3.39-.21-4.37-2.47L531,811.27H421.65l-29.08,98.08c-.48,3.39-1.93,3.6-4.84,3.6h-48.8c-3.38,0-4.35-1-3.38-4.85,25.84-87.05,69.31-231.48,99.85-330,1.44-5.65,2.9-11.63,3.87-31.65,0-2.26,1.46-3.9,2.91-3.9h65.93c2.43,0,2.9,1.25,3.88,3.51,35.38,116.61,74.16,244.59,110.34,362.33C623.3,911.76,622.32,913,619.42,913ZM854.67,750.27v160c0,2.87-2.25,2.68-4.58,2.68H799.92c-2.81,0-3.36,0-3.36-3.31v-160c0-36.48-15.72-61.51-44.6-61.51-18,0-25.61,2.71-45,11.47V910.27c0,3.35-2.08,2.68-4.92,2.68H651.41c-2.49,0-2.53.67-2.53-3.32V704.75h-1.12c0-17,1-34.52,0-45.69,0-2.86.73-3.72,3.54-3.72,0,0,77.39-22.57,123.72-19.06C812.09,639.14,854.67,659.28,854.67,750.27Z"/></svg>