<svg id="Ebene_2" data-name="Ebene 2" xmlns="http://www.w3.org/2000/svg" viewBox="0 0 1080 1080"><defs><style>.cls-1{fill:#010101;}</style></defs><path class="cls-1" d="M527.87,183.57c-7.2,0-4.88.22-4.88.45v98.14c2.42,0-2.32.23,2.48.23,23.45,0,34.95-11,34.95-49.48C560.42,197.37,551,183.57,527.87,183.57Z"/><path class="cls-1" d="M408.79,183.57c-7.2,0-6.88.22-6.88.45v98.14c4.85,0-.32.23,4.47.23,23.46,0,34.95-11,34.95-49.48C441.33,197.37,431.87,183.57,408.79,183.57Z"/><polygon class="cls-1" points="825.68 0 825.68 167.33 992.88 167.33 825.68 0"/><path class="cls-1" d="M678,96.86H87.12V368.07H678ZM224.42,305.11c1.52,0,.72,2.1.72.51v-.51H199a.47.47,0,0,0-.52.55h0V162.27c0-1.37-1-2.45.52-2.45h25.64c1.27,0,.47,1.31.47,2.45V305.11Zm120.22,0h-27.7c-1.5,0-1.68.68-2.43-.47-9.51-26.88-28.13-83.72-34.84-104.46,0,0-.42,13.44-.23,33.27l-.19,71.1c0,1.14-.19.56-1.31.56H254.75c-1.12,0-.55,2.33-.55.51V162.27c0-1.14-.57-2.45.36-2.45h31.05c1.3,0,1.58.66,2,1.8C300.44,191.93,316.45,245.25,320,256c0,0-.41-3.21-.41-20.77V162.27c0-1.15.87-2.45,2-2.45H345c1.11,0,1.21,1.3,1.21,2.68V305.62C346.22,307.21,346.13,305.11,344.64,305.11Zm60.7,3c-12.57,0-21.94-.23-31-.46-.74,0-1.5-.45-1.5-1.83V162.27c0-.91.76-1.37,1.68-1.6,9.42-.22,23-.45,35-.45,39.34,0,59,28.48,59,72C468.48,297.19,428.79,308.13,405.34,308.13Zm117.49,0c-12.56,0-21.56-.23-30.61-.46-.74,0-.71-.45-.71-1.83V162.27c0-.91,0-1.37.9-1.6,9.42-.22,22.16-.45,34.17-.45,39.33,0,59.17,28.48,59.17,72C585.75,297.19,546.31,308.13,522.83,308.13Z"/><path class="cls-1" d="M801.47,0H191.24V70.22H707V394.71H191.24V1080H992.77V191.3H801.47ZM484.25,905.46c0,3.39.21,5-3.19,5H430.53c-2.91,0-4.4-1.64-4.4-5V546.2c0-3.39,2-3.78,4.4-3.78h51c2.91,0,2.7.38,2.7,3.78ZM761,889.34c-30.1,17.23-64.28,27.24-95.8,27.24C595,916.58,545,871.56,545,778.77c0-80.57,51.07-148.36,132.23-148.36,11,0,20.12,1.11,27.39,3.89V544.18c0-2.77.6-4.18,2.51-4.18h52a3.49,3.49,0,0,1,3.57,3.63v304.6c0,11.66.37,26.68.84,35.57C764,886.57,763.37,887.68,761,889.34Z"/><path class="cls-1" d="M604.21,775.43c0,62.79,31.48,87.8,67.75,87.8,11.93,0,25.38-2.22,32.64-5.56V687.09c-7.26-3.34-17.26-5-28.24-5C633.4,682.08,604.21,718.75,604.21,775.43Z"/></svg>