<svg id="Ebene_2" data-name="Ebene 2" xmlns="http://www.w3.org/2000/svg" viewBox="0 0 1080 1440"><defs><style>.cls-1{fill:#010101;}</style></defs><path class="cls-1" d="M525.54,371.13c-8.59,0-5.82.27-5.82.54v117c2.89,0-2.77.27,2.95.27,28,0,41.67-13.07,41.67-59C564.34,387.59,553.05,371.13,525.54,371.13Z"/><path class="cls-1" d="M383.55,371.13c-8.59,0-8.2.27-8.2.54v117c5.78,0-.39.27,5.33.27,28,0,41.67-13.07,41.67-59C422.35,387.59,411.07,371.13,383.55,371.13Z"/><polygon class="cls-1" points="880.64 151.96 880.64 351.48 1080 351.48 880.64 151.96"/><path class="cls-1" d="M704.51,267.74H0V591.12H704.51ZM163.71,516.05c1.82,0,.87,2.51.87.61v-.61H133.44a.57.57,0,0,0-.62.66h0v-171c0-1.63-1.2-2.92.62-2.92H164c1.52,0,.57,1.56.57,2.92V516.05Zm143.35,0H274c-1.78,0-2,.81-2.9-.55-11.33-32.06-33.53-99.84-41.54-124.56,0,0-.5,16-.28,39.67l-.22,84.77c0,1.36-.23.67-1.55.67H199.88c-1.34,0-.66,2.78-.66.61V345.73c0-1.36-.68-2.92.43-2.92h37c1.55,0,1.88.79,2.34,2.15,15.34,36.15,34.43,99.72,38.65,112.49,0,0-.49-3.83-.49-24.77V345.73c0-1.36,1-2.92,2.38-2.92H307.5c1.33,0,1.44,1.56,1.44,3.2V516.66C308.94,518.56,308.83,516.05,307.06,516.05Zm72.37,3.6c-15,0-26.15-.27-36.94-.54-.88,0-1.79-.55-1.79-2.19V345.73c0-1.08.91-1.63,2-1.9,11.24-.27,27.41-.54,41.72-.54,46.91,0,70.29,34,70.29,85.86C454.72,506.6,407.4,519.65,379.43,519.65Zm140.1,0c-15,0-25.71-.27-36.5-.54-.88,0-.85-.55-.85-2.19V345.73c0-1.08,0-1.63,1.07-1.9,11.23-.27,26.43-.54,40.75-.54,46.9,0,70.55,34,70.55,85.86C594.55,506.6,547.52,519.65,519.53,519.65Z"/><path class="cls-1" d="M851.76,152.25H124.16V236h615V622.89h-615V1440h955.7V380.35H851.76ZM473.52,1231.89c0,4,.26,6-3.79,6H409.48c-3.47,0-5.25-2-5.25-6V803.52c0-4,2.36-4.51,5.25-4.51h60.83c3.47,0,3.21.46,3.21,4.51Zm330-19.23c-35.89,20.55-76.64,32.49-114.22,32.49-83.68,0-143.34-53.68-143.34-164.32,0-96.08,60.89-176.9,157.66-176.9,13.09,0,24,1.32,32.66,4.63V801.11c0-3.3.72-5,3-5h62a4.17,4.17,0,0,1,4.26,4.32v363.19c0,13.91.43,31.81,1,42.41C807.13,1209.36,806.34,1210.68,803.51,1212.66Z"/><path class="cls-1" d="M616.56,1076.85c0,74.86,37.54,104.69,80.79,104.69,14.22,0,30.25-2.65,38.92-6.63V971.51c-8.67-4-20.58-6-33.68-6C651.37,965.54,616.56,1009.27,616.56,1076.85Z"/></svg>