<svg id="Ebene_1" data-name="Ebene 1" xmlns="http://www.w3.org/2000/svg" viewBox="0 0 1080 1440"><defs><style>.cls-1{fill:#010101;}</style></defs><path class="cls-1" d="M704.51,267.74H0V591.12H704.51ZM288.22,426.59c-2.62,6.65-7.56,12.5-12.74,17.05a55,55,0,0,1-18.83,10.93A79.46,79.46,0,0,1,231.9,459l-9.58-.49v60.46H181.9v-179h44c1.39,0,4-.47,7.77-.55.38,0,.75-.51,1.12-.51a84.28,84.28,0,0,1,12,1,80.16,80.16,0,0,1,15.42,4A44.06,44.06,0,0,1,288,368.28c2.85,6.38,3.19,14.51,4.22,24.19C293.29,402.5,292.18,416.58,288.22,426.59Zm140.92,39.9a72.8,72.8,0,0,1-14,28.15c-6.49,7.9-15,13.67-25.54,18.06s-23.43,6.24-38.65,6.24H314.72v-179h31c1,0,4-.51,8.82-.67,2.85-.1,6.9-.91,11.08-.91a47.38,47.38,0,0,1,8.55.69,90.11,90.11,0,0,1,20.63,6.71,61.2,61.2,0,0,1,20.09,15.1,66.81,66.81,0,0,1,15.2,27.57c3.33,12.79,3.29,25.61,3.29,42.37A140.53,140.53,0,0,1,429.14,466.49Zm116.57-94.8h-52V415h46.2v31.76h-46.2v72.18H456.2v-179h89.51Z"/><path class="cls-1" d="M597.66,808.18c-.41-34.75-11.72-39.6-21.82-39.6s-23,10.91-23,50.91,15.36,83.26,23,91.33C575.84,910.82,598.06,842.94,597.66,808.18Z"/><polygon class="cls-1" points="880.64 151.96 880.64 351.48 1080 351.48 880.64 151.96"/><path class="cls-1" d="M231.63,371.69h-9.31v53.37c0,.05,3.27.06,4.36.06,8,0,16.31-1.09,20.78-4.27,8.33-5.93,8.31-13.83,8.31-23.1,0-6.54-2.24-15.1-6.88-20.32C245.19,373.27,239.93,371.69,231.63,371.69Z"/><path class="cls-1" d="M356.82,1262.78c43.15,25.81,109.52-103,109.52-103C443.3,1162.16,315.61,1238.13,356.82,1262.78Z"/><path class="cls-1" d="M390.28,390.3a44.1,44.1,0,0,0-12.2-14.85c-5-4-14.61-3.76-22.48-3.76h-6.23V486.27c8.66.05,5.36.08,6.57.08,6.15,0,14.08-.83,18.35-4,5.1-3.74,10.68-7.7,13.71-13.53a66.52,66.52,0,0,0,6.39-18.92,109.81,109.81,0,0,0,1.26-19.26c0-5.75.29-12.36-.06-20.64A49,49,0,0,0,390.28,390.3Z"/><path class="cls-1" d="M560.88,1076.09l-17,38s20.74-10.5,62.1-20.61,59.13-12.13,59.13-12.13-46.48-51.31-69.92-95C595.24,986.39,577.87,1038.12,560.88,1076.09Z"/><path class="cls-1" d="M851.76,152.25H124.16V236h615V622.89h-615V1440h955.7V380.35H851.76Zm27.55,964.65c.41,4,3.65,41.23-62.63,43.65s-135-66.68-135-66.68S653.44,1098.33,630,1104s-98.63,26.26-98.63,26.26-22.24,40.42-71.54,105.07-104.53,59.8-120.28,38.39c-18.31-24.86-4.19-49.7,30.57-82s114.9-59.13,114.9-59.13,16.16-29.09,39.87-84.59,41.63-111.26,41.63-111.26-23.46-53.24-28-98.57c-5.1-50.53.55-84.49,39.35-84.89s50.92,28.7,52.13,79.2-26.27,130.93-26.27,130.93c22.63,48.9,84.87,111.93,84.87,111.93S708.79,1070,792,1068,878.91,1112.87,879.31,1116.9Z"/><path class="cls-1" d="M705.41,1090c51.19,48.76,134.43,67.47,134.43,21.54S705.41,1090,705.41,1090Z"/></svg>