<svg id="Ebene_2" data-name="Ebene 2" xmlns="http://www.w3.org/2000/svg" viewBox="0 0 1080 1440"><defs><style>.cls-1{fill:#010101;}</style></defs><polygon class="cls-1" points="880.64 151.96 880.64 351.48 1080 351.48 880.64 151.96"/><path class="cls-1" d="M704.51,267.74H0V591.12H704.51Zm-425.65,175c-10.29,12.17-25.37,17.39-42.38,17.39-3.18,0-8.38-.24-8.38-.5v56.39H193.45V351.32a227.91,227.91,0,0,1,42.45-3.47c18.14,0,31.44,4.21,40.23,13.16,8.61,8.46,14.68,23.36,14.68,40.51C290.81,418.41,286.71,433.32,278.86,442.77Zm63.53,76.53c-15.14,0-29.92-5.47-37-10.44l6.36-37c7.67,5.23,20.2,10.45,32.73,10.45,11.6,0,17.2-5.23,17.2-13.67,0-8.2-5.6-12.93-19.82-19.39-21.32-9.93-35.34-25.59-35.34-50.44,0-29.57,18.7-52.43,50.49-52.43,15.14,0,25.8,3.73,34.21,8.7l-7.1,35.78a53,53,0,0,0-27.49-7.95c-10.28,0-15.9,5-15.9,12.42,0,8.45,6.74,11.94,22.63,19.89,22.63,10.93,32.91,27.08,32.91,50.44C396.24,494.45,379.22,519.3,342.39,519.3Zm187.68-52.7A68.13,68.13,0,0,1,516.91,493c-6.08,7.43-14.08,13-24,17.12s-22,5.94-36.31,5.94h-29.3V345.7h24.43a61.2,61.2,0,0,0,8.29.41c2.67-.08,6.47-.1,10.4-.1a45.38,45.38,0,0,1,8,.78,85,85,0,0,1,19.36,6.39,57.63,57.63,0,0,1,18.89,14.2A63,63,0,0,1,531,393.3c3.12,12,3.08,24,3.08,39.79A131.56,131.56,0,0,1,530.07,466.6Z"/><path class="cls-1" d="M493.56,395.34a42.59,42.59,0,0,0-11.46-14.27c-4.69-3.75-13.73-3.61-21.12-3.61h3.88V485.24c2.89.06.18.08,1.31.08,5.77,0,8.73-.78,12.74-3.73,4.79-3.53,9.86-7.23,12.7-12.71a62.13,62.13,0,0,0,5.91-17.78A103.4,103.4,0,0,0,498.65,433c0-5.39.24-11.48-.08-19.25A45.3,45.3,0,0,0,493.56,395.34Z"/><path class="cls-1" d="M851.76,152.25H124.16V236h615V622.89h-615V1440h955.7V380.35H851.76Zm-391.41,924h-33v147.6c0,3.93-4.41,5.42-7.33,5.42H358c-2.93,0,0-1.49,0-4.77V805.71c0-3.26-1.48-4.59,1.43-4.59,22.24-.65,64.34-1.3,108.79-1.3,114.65,0,148.44,67.22,149,143.35C617.29,1047.53,546.34,1076.2,460.35,1076.2Zm395.73,64.18c0,65.64-44.87,101.08-109.21,101.08-31,0-66.36-8.54-90.93-25.6-2.35-1.31-3.4-3.28-3.4-6.56v-60.38c0-2.43,1.16-3.79,2.57-3.79.46,0,.54.17,1,.5,30.43,21.66,64.55,35.45,94.95,35.45,26.92,0,36.41-15.1,36.41-29.53,0-17.06-10.4-26.92-52.52-46-60.27-27.56-81.14-53.17-81.14-101.06,0-53.16,38.34-95.17,107.38-95.17,35.69,0,61.11,8.53,77.5,19,2.92,2.62,4.44,4.59,4.44,8.53v53.81a4.48,4.48,0,0,1-4,4.72,7.91,7.91,0,0,1-3.29-.78c-21.07-13.12-50.81-24.93-81.24-24.93-28.64,0-36.21,15.09-36.21,27.56,0,15.75,7.64,24.28,51.51,44C830.11,1068.85,856.08,1093.12,856.08,1140.38Z"/><path class="cls-1" d="M238.35,381.63c-5,0-10.25.5-10.25,1v42.74c0,.25,4.27.5,7.82.5,13.27,0,21.5-8.95,21.5-23.36C257.42,390.09,251.06,381.63,238.35,381.63Z"/><path class="cls-1" d="M469.57,862.17c-22.81,0-39.36.65-42.25,1.31v147.17c2.89.66,11.84,1.32,36.41,1.32,46.22,0,84.83-8.65,84.83-74.28C548.56,885.19,524.57,862.17,469.57,862.17Z"/></svg>