<svg id="Ebene_2" data-name="Ebene 2" xmlns="http://www.w3.org/2000/svg" viewBox="0 0 1080 1080"><defs><style>.cls-1{fill:#010101;}</style></defs><polygon class="cls-1" points="825.62 0 825.62 167.29 992.78 167.29 825.62 0"/><path class="cls-1" d="M677.94,97.08H87.22V368.23H677.94ZM321,243.84c-8.63,10.21-21.27,14.58-35.53,14.58-2.67,0-7-.2-7-.42v47.29H249.43V167.16A190.87,190.87,0,0,1,285,164.25c15.2,0,26.36,3.53,33.73,11,7.22,7.09,12.31,19.58,12.31,34C331.06,223.41,327.62,235.92,321,243.84ZM374.31,308c-12.7,0-25.09-4.58-31.05-8.76l5.33-31C355,272.59,365.53,277,376,277c9.72,0,14.42-4.38,14.42-11.45,0-6.88-4.7-10.84-16.62-16.26-17.88-8.33-29.63-21.46-29.63-42.3,0-24.79,15.67-43.95,42.33-43.95,12.69,0,21.63,3.12,28.68,7.28l-6,30a44.42,44.42,0,0,0-23-6.67c-8.62,0-13.33,4.17-13.33,10.42,0,7.09,5.65,10,19,16.67,19,9.17,27.6,22.71,27.6,42.3C419.46,287.17,405.19,308,374.31,308Zm157.36-44.19a57,57,0,0,1-11,22.14c-5.1,6.23-11.81,10.9-20.11,14.35s-18.46,5-30.45,5H445.52V162.45H466a53.49,53.49,0,0,0,6.95.35c2.24-.08,5.43-.09,8.72-.09a37.77,37.77,0,0,1,6.75.66,70.84,70.84,0,0,1,16.23,5.35,48.32,48.32,0,0,1,15.84,11.91,52.73,52.73,0,0,1,12,21.73c2.62,10.07,2.58,20.16,2.58,33.37A110.14,110.14,0,0,1,531.67,263.82Z"/><path class="cls-1" d="M501.06,204.07a35.75,35.75,0,0,0-9.61-12c-3.93-3.14-11.51-3-17.7-3H477v90.37c2.42.05.15.07,1.09.07,4.84,0,7.32-.65,10.69-3.13,4-3,8.26-6.06,10.64-10.66a51.77,51.77,0,0,0,5-14.9,86.6,86.6,0,0,0,.95-15.17c0-4.53.2-9.63-.07-16.15A37.8,37.8,0,0,0,501.06,204.07Z"/><path class="cls-1" d="M801.41.24H191.32V70.45H707V394.86H191.32V1080H992.66V191.5H801.41ZM473.21,775H445.52V898.72c0,3.29-3.7,4.55-6.15,4.55h-52c-2.46,0,0-1.26,0-4V548.16c0-2.74-1.24-3.85,1.2-3.85,18.65-.54,53.95-1.09,91.22-1.09,96.13,0,124.47,56.36,125,120.2C604.8,750.92,545.32,775,473.21,775ZM805,828.78c0,55-37.62,84.74-91.57,84.74-26,0-55.65-7.15-76.25-21.46-2-1.09-2.85-2.75-2.85-5.5V835.93c0-2,1-3.17,2.16-3.17.38,0,.45.14.81.42,25.52,18.16,54.13,29.72,79.62,29.72,22.57,0,30.53-12.66,30.53-24.76,0-14.31-8.73-22.57-44-38.53-50.54-23.11-68-44.58-68-84.74,0-44.57,32.15-79.8,90-79.8,29.93,0,51.24,7.15,65,16,2.45,2.2,3.72,3.85,3.72,7.16v45.12a3.74,3.74,0,0,1-3.35,4,6.74,6.74,0,0,1-2.76-.65c-17.66-11-42.6-20.91-68.12-20.91-24,0-30.36,12.66-30.36,23.12,0,13.2,6.41,20.35,43.19,36.87C783.25,768.8,805,789.15,805,828.78Z"/><path class="cls-1" d="M287.07,192.58c-4.23,0-8.59.42-8.59.83v35.84c0,.21,3.57.42,6.55.42,11.13,0,18-7.51,18-19.59C303.06,199.67,297.73,192.58,287.07,192.58Z"/><path class="cls-1" d="M481,595.5c-19.13,0-33,.54-35.43,1.1V720c2.42.55,9.92,1.11,30.53,1.11,38.75,0,71.13-7.26,71.13-62.29C547.18,614.8,527.06,595.5,481,595.5Z"/></svg>