<svg id="Ebene_2" data-name="Ebene 2" xmlns="http://www.w3.org/2000/svg" viewBox="0 0 1080 1440"><defs><style>.cls-1{fill:#010101;}.cls-2{fill:#fff;}</style></defs><polygon class="cls-1" points="851.76 377.46 851.76 151.96 124.16 151.96 124.16 235.98 739.16 235.98 739.16 622.89 124.16 622.89 124.16 1440 1080 1440 1080 377.46 851.76 377.46"/><path class="cls-1" d="M0,267.74V591.12H704.51V267.74ZM283.91,371.63H235.86V514.21h-40V371.63H148.64V338.21H283.91ZM402.45,514.21l-15.93-31.86c-6.52-12.27-10.7-21.41-15.66-31.6h-.53c-3.65,10.19-8.09,19.33-13.58,31.6l-14.62,31.86H296.7l50.92-89-49.1-87h45.7l15.41,32.12c5.22,10.71,9.14,19.32,13.31,29.25h.53c4.17-11.23,7.57-19.07,12-29.25l14.88-32.12H445.8l-49.62,85.91,52.23,90.09ZM593.33,371.63H545.28V514.21H505.33V371.63H458.07V338.21H593.33Z"/><polygon class="cls-1" points="880.64 151.96 880.64 351.48 1080 351.48 880.64 151.96"/><g id="lines"><rect class="cls-2" x="257.12" y="796.13" width="689.77" height="58.01"/><rect class="cls-2" x="257.12" y="890.28" width="689.77" height="58.01"/><rect class="cls-2" x="257.12" y="984.74" width="689.77" height="58.01"/><rect class="cls-2" x="257.12" y="1078.9" width="689.77" height="58.01"/><rect class="cls-2" x="257.12" y="1173.05" width="536.08" height="58.01"/></g></svg>