<svg id="Ebene_2" data-name="Ebene 2" xmlns="http://www.w3.org/2000/svg" viewBox="0 0 1080 1080"><defs><style>.cls-1{fill:#010101;}.cls-2{fill:#fff;}</style></defs><polygon class="cls-1" points="801.41 189.08 801.41 0 191.32 0 191.32 70.45 706.99 70.45 706.99 394.86 191.32 394.86 191.32 1080 992.78 1080 992.78 189.08 801.41 189.08"/><path class="cls-1" d="M87.22,97.08V368.23H677.94V97.08Zm238.05,87.11H285V303.74h-33.5V184.19H211.85v-28H325.27Zm99.4,119.55L411.31,277c-5.47-10.29-9-18-13.13-26.49h-.44c-3.07,8.53-6.79,16.2-11.39,26.49l-12.26,26.71H336l42.7-74.66-41.16-72.91h38.31l12.92,26.93c4.38,9,7.66,16.2,11.17,24.52h.43c3.51-9.41,6.35-16,10.08-24.52l12.48-26.93H461l-41.6,72,43.79,75.54ZM584.72,184.19H544.43V303.74h-33.5V184.19H471.3v-28H584.72Z"/><polygon class="cls-1" points="825.62 0 825.62 167.29 992.78 167.29 825.62 0"/><g id="lines"><rect class="cls-2" x="302.81" y="540.12" width="578.36" height="48.64"/><rect class="cls-2" x="302.81" y="619.07" width="578.36" height="48.64"/><rect class="cls-2" x="302.81" y="698.27" width="578.36" height="48.64"/><rect class="cls-2" x="302.81" y="777.22" width="578.36" height="48.64"/><rect class="cls-2" x="302.81" y="856.17" width="449.5" height="48.64"/></g></svg>