<svg id="Ebene_2" data-name="Ebene 2" xmlns="http://www.w3.org/2000/svg" viewBox="0 0 1080 1080"><defs><style>.cls-1{fill:#010101;}.cls-2{fill:#fff;}</style></defs><polygon class="cls-1" points="801.41 189.08 801.41 0 191.32 0 191.32 70.45 706.99 70.45 706.99 394.86 191.32 394.86 191.32 1080 992.78 1080 992.78 189.08 801.41 189.08"/><path class="cls-1" d="M87.22,97.08V368.23H677.94V97.08ZM300.75,303.74,287.39,277c-5.47-10.29-9-18-13.14-26.49h-.43c-3.07,8.53-6.79,16.2-11.39,26.49l-12.26,26.71h-38.1l42.7-74.66-41.16-72.91h38.31l12.92,26.93c4.38,9,7.66,16.2,11.17,24.52h.43c3.51-9.41,6.35-16,10.08-24.52L299,156.17h38.09l-41.6,72,43.79,75.54Zm148.66,0H357.24V156.17h33.49V275.71h58.68Zm55.83,2.19c-16.86,0-33.5-4.38-41.82-9l6.79-27.59c9,4.6,22.77,9.2,37,9.2,15.33,0,23.43-6.35,23.43-16,0-9.2-7-14.45-24.74-20.8-24.52-8.54-40.51-22.12-40.51-43.57,0-25.18,21-44.45,55.84-44.45,16.63,0,28.9,3.5,37.65,7.44l-7.44,26.94a70.08,70.08,0,0,0-30.87-7c-14.45,0-21.46,6.57-21.46,14.23,0,9.41,8.32,13.58,27.37,20.8,26,9.63,38.32,23.21,38.32,44C564.8,284.91,545.75,305.93,505.24,305.93Z"/><polygon class="cls-1" points="825.62 0 825.62 167.29 992.78 167.29 825.62 0"/><g id="lines"><rect class="cls-2" x="302.81" y="540.12" width="578.36" height="48.64"/><rect class="cls-2" x="302.81" y="619.07" width="578.36" height="48.64"/><rect class="cls-2" x="302.81" y="698.27" width="578.36" height="48.64"/><rect class="cls-2" x="302.81" y="777.22" width="578.36" height="48.64"/><rect class="cls-2" x="302.81" y="856.17" width="449.5" height="48.64"/></g></svg>