<svg id="Ebene_2" data-name="Ebene 2" xmlns="http://www.w3.org/2000/svg" viewBox="0 0 1080 1440"><defs><style>.cls-1{fill:#010101;}.cls-2{fill:#fff;}</style></defs><polygon class="cls-1" points="851.76 377.46 851.76 151.96 124.16 151.96 124.16 235.98 739.16 235.98 739.16 622.89 124.16 622.89 124.16 1440 1080 1440 1080 377.46 851.76 377.46"/><path class="cls-1" d="M0,267.74V591.12H704.51V267.74ZM254.66,514.21l-15.93-31.86c-6.53-12.27-10.7-21.41-15.67-31.6h-.52c-3.65,10.19-8.09,19.33-13.58,31.6l-14.62,31.86H148.9l50.92-89-49.09-87h45.7l15.4,32.12c5.23,10.71,9.14,19.32,13.32,29.25h.52c4.18-11.23,7.58-19.07,12-29.25l14.88-32.12H298l-49.62,85.91,52.23,90.09Zm177.3,0H322v-176h40V480.78h70Zm66.59,2.61c-20.11,0-40-5.22-49.88-10.71l8.1-32.9c10.7,5.49,27.15,11,44.13,11,18.27,0,27.94-7.57,27.94-19.06,0-11-8.36-17.24-29.51-24.81-29.25-10.18-48.31-26.37-48.31-52,0-30,25.07-53,66.59-53,19.84,0,34.47,4.18,44.91,8.88l-8.88,32.11A83.72,83.72,0,0,0,516.83,368c-17.24,0-25.6,7.83-25.6,17,0,11.23,9.93,16.19,32.65,24.81,31.07,11.49,45.69,27.68,45.69,52.48C569.57,491.75,546.85,516.82,498.55,516.82Z"/><polygon class="cls-1" points="880.64 151.96 880.64 351.48 1080 351.48 880.64 151.96"/><g id="lines"><rect class="cls-2" x="257.12" y="796.13" width="689.77" height="58.01"/><rect class="cls-2" x="257.12" y="890.28" width="689.77" height="58.01"/><rect class="cls-2" x="257.12" y="984.74" width="689.77" height="58.01"/><rect class="cls-2" x="257.12" y="1078.9" width="689.77" height="58.01"/><rect class="cls-2" x="257.12" y="1173.05" width="536.08" height="58.01"/></g></svg>