<?xml version="1.0" ?><!DOCTYPE svg  PUBLIC '-//W3C//DTD SVG 1.1//EN'  'http://www.w3.org/Graphics/SVG/1.1/DTD/svg11.dtd'><svg height="512px" style="enable-background:new 0 0 512 512;" version="1.1" viewBox="0 0 512 512" width="512px" xml:space="preserve" xmlns="http://www.w3.org/2000/svg" xmlns:xlink="http://www.w3.org/1999/xlink"><g id="_x33_4_x2C__Ai_x2C__Illustrator_x2C__Adobe"><g><g><path d="M319,73H75v112h244V73z M198.295,160l-1.926-14h-11.32l-1.844,14h-14.52l13.576-61h17.391l13.245,61H198.295z M233,160     h-13V99h13V160z"/><polygon points="190.791,109 186.61,136 194.977,136 190.956,109    "/><path d="M261.913,282c-3.01,16-11.234,42-17.251,64h35.309c-4.017-16-13.845-47-17.856-64H261.913z"/><polygon points="380,32.899 380,102 449.048,102    "/><path d="M370,33H118v29h213v134H118v283h331V112h-79V33z M322.499,412h-22.471c-1,0-1.402-0.241-1.804-1.176L285.386,370h-45.942     l-12.236,40.356c-0.201,1.402-0.804,1.644-2.006,1.644h-20.464c-1.403,0-1.805-1.023-1.403-2.654     c10.833-35.688,29.086-95.367,41.925-135.719c0.604-2.334,1.207-4.418,1.609-12.581c0-0.932,0.598-1.046,1.202-1.046h27.688     c1.002,0,1.202-0.18,1.604,0.752c14.844,47.814,31.096,100.699,46.339,148.977C324.103,411.131,323.701,412,322.499,412z      M365,410.696c0,1.168-0.342,2.304-1.525,2.304h-20.502c-1.183,0-1.973-0.902-1.973-2.533V301.07c0-1.398,0.594-2.07,1.579-2.07     h20.896c1.184,0,1.525,0.438,1.525,2.07V410.696z M353.025,283.813c-7.883,0-13.203-5.602-13.203-14.462     c0-8.631,5.713-14.466,13.399-14.466c8.084,0,13.012,5.835,13.012,14.466C366.233,278.212,360.913,283.813,353.025,283.813z"/></g></g></g><g id="Layer_1"/></svg>