<?xml version="1.0" ?><!DOCTYPE svg  PUBLIC '-//W3C//DTD SVG 1.1//EN'  'http://www.w3.org/Graphics/SVG/1.1/DTD/svg11.dtd'><svg height="512px" style="enable-background:new 0 0 512 512;" version="1.1" viewBox="0 0 512 512" width="512px" xml:space="preserve" xmlns="http://www.w3.org/2000/svg" xmlns:xlink="http://www.w3.org/1999/xlink"><g id="_x33_2_x2C__PHP_x2C__File_Type_x2C__Script"><g><g><path d="M320,72.972H75.764v112.474H320V72.972z M150.823,141.159c-0.696,0-1.084,0-1.291,0v18.036     c0,0.551-0.932,1.104-1.334,1.104h-11.521c-0.403,0-0.304-0.554-0.304-1.014v-58.629c0-0.46-0.053-0.645,0.35-0.645     c3.073-0.091,9.005-0.185,15.146-0.185c15.842,0,21.338,9.501,21.416,20.163C173.286,134.599,162.702,141.159,150.823,141.159z      M218.916,159.194c0,0.551-0.585,1.104-1.077,1.104h-10.462c-0.591,0-0.424-0.554-0.424-1.104v-22.82h-14.355v22.73     c0,0.551-0.089,1.195-0.686,1.195h-10.166c-0.69,0-1.111-0.554-1.111-1.195v-58.618c0,0,0.421,0,1.013,0h10.264     c0.596,0,0.686-0.385,0.686,0.17v24.952h14.355v-24.952c0-0.46-0.167-0.17,0.424-0.17h10.56c0.394,0,0.979-0.385,0.979,0.17     V159.194z M243.09,141.159c-0.841,0-1.255,0-1.445,0v18.036c0,0.551-0.776,1.104-1.18,1.104h-11.52     c-0.403,0,0.737-0.554,0.737-1.014v-58.629c0-0.46-0.571-0.645-0.169-0.645c3.073-0.091,8.485-0.185,14.625-0.185     c15.841,0,21.338,9.501,21.416,20.163C265.554,134.599,254.969,141.159,243.09,141.159z"/><path d="M245.159,110.37c-2.041,0-3.514,0.079-3.514,0.157v19.498c0,0.078,0.795,0.157,2.993,0.157     c4.127,0,8.103-2.408,8.103-10.179C252.74,113.788,250.071,110.37,245.159,110.37z"/><path d="M370.005,32.899H118.869v29.694h212.716V195.79H118.869v283.311h330.179V112.735h-79.043V32.899z M239.896,281.1     l-44.249,51.533l44.249,51.538v35.852l-75.621-87.39l75.621-85.141V281.1z M284.337,423.103h-26.516l35.361-178.692H320     L284.337,423.103z M405.146,332.633l-75.622,87.39v-35.852l44.254-51.538L329.524,281.1v-33.608L405.146,332.633z"/><path d="M152.968,110.37c-2.041,0-3.436,0.079-3.436,0.157v19.498c0,0.078,0.717,0.157,2.915,0.157     c4.127,0,8.104-2.408,8.104-10.179C160.551,113.788,157.881,110.37,152.968,110.37z"/><polygon points="380.611,32.899 380.611,101.983 449.048,101.983    "/></g></g></g><g id="Layer_1"/></svg>